<svg width="55" height="31" viewBox="0 0 55 31" fill="none" xmlns="http://www.w3.org/2000/svg">
<g clip-path="url(#clip0_10_2075)">
<path d="M50.5 14.8463C50.5 19.7909 49.453 23.6541 47.3875 26.3284C45.2485 29.0965 42.132 30.4995 38.124 30.4995H33.8445C32.754 30.4995 31.87 29.5459 31.87 28.3694V27.0231H38.124C41.173 27.0231 43.3935 26.0679 44.912 24.1023C46.4815 22.0704 47.2775 18.9559 47.2775 14.8463C47.2775 11.1822 46.5275 8.40918 45.048 6.60329C43.6 4.8357 41.4735 3.9759 38.547 3.9759H31.87V2.62958C31.87 1.45316 32.754 0.499512 33.8445 0.499512H38.547C42.3965 0.499512 45.3965 1.77841 47.4625 4.30062C49.478 6.76079 50.5 10.3089 50.5 14.8463ZM22.2355 9.5527C22.2355 8.37628 21.3515 7.42263 20.261 7.42263H11.7405C10.65 7.42263 9.766 8.37628 9.766 9.5527V30.4995H12.97V11.399C12.97 11.1121 13.1855 10.8796 13.4515 10.8796H22.235L22.2355 9.5527ZM22.2355 26.1547V19.0757V15.6193V13.7141H19.0315V15.6193H16.002V19.0757H19.0315V26.1547H22.2355ZM22.2355 2.63983C22.2355 1.46341 21.3515 0.50976 20.261 0.50976H2.4745C1.384 0.50976 0.5 1.46341 0.5 2.63983V28.3592C0.5 29.5356 1.384 30.4893 2.4745 30.4893H3.704V4.48617C3.704 4.19921 3.92 3.9662 4.186 3.9662H22.236L22.2355 2.63983ZM25.4405 26.6962C25.4405 27.0668 25.308 27.2664 24.938 27.2664H16.0015V28.3592C16.0015 29.5356 16.8855 30.4893 17.976 30.4893H26.709C27.872 30.4893 28.6655 29.5766 28.6655 28.4358V0.50976H25.44L25.4405 26.6962Z" fill="#231F20"/>
</g>
<defs>
<clipPath id="clip0_10_2075">
<rect width="54" height="30" fill="white" transform="translate(0.5 0.5)"/>
</clipPath>
</defs>
</svg>
