<svg id="Layer_1" data-name="Layer 1" xmlns="http://www.w3.org/2000/svg" xmlns:xlink="http://www.w3.org/1999/xlink" viewBox="0 0 459.2 638"><defs><style>.cls-1{fill:#fff;}.cls-2,.cls-3{fill:#231f20;}.cls-3{isolation:isolate;font-size:19.44px;font-family:ArialMT, Arial;}.cls-4{fill:#000001;}.cls-5{fill:#ec1c24;}.cls-6{fill:#f58220;}.cls-7{fill:url(#linear-gradient);}.cls-8{fill:url(#linear-gradient-2);}.cls-9{fill:url(#linear-gradient-3);}.cls-10{fill:url(#linear-gradient-4);}.cls-11{fill:url(#linear-gradient-5);}.cls-12{fill:url(#linear-gradient-6);}.cls-13{fill:url(#linear-gradient-7);}.cls-14{fill:#fffbc8;}</style><linearGradient id="linear-gradient" x1="394.57" y1="841.21" x2="473.71" y2="584" gradientTransform="matrix(1, 0.04, 0.02, -1, -26.84, 1324.86)" gradientUnits="userSpaceOnUse"><stop offset="0.49" stop-color="#ffea00"/><stop offset="0.71" stop-color="#fd0"/><stop offset="0.87" stop-color="#ffcb05"/><stop offset="1" stop-color="#ffd400"/></linearGradient><linearGradient id="linear-gradient-2" x1="413.36" y1="840.89" x2="489.5" y2="593.43" xlink:href="#linear-gradient"/><linearGradient id="linear-gradient-3" x1="352.97" y1="843.75" x2="439.43" y2="562.76" gradientTransform="matrix(1, 0.02, 0.02, -1, -26.84, 1342.96)" xlink:href="#linear-gradient"/><linearGradient id="linear-gradient-4" x1="438.67" y1="860.73" x2="518.61" y2="600.94" xlink:href="#linear-gradient"/><linearGradient id="linear-gradient-5" x1="597.88" y1="914.94" x2="693.95" y2="602.73" gradientTransform="matrix(1, 0.05, 0.02, -1, -26.84, 1311.96)" xlink:href="#linear-gradient"/><linearGradient id="linear-gradient-6" x1="504.91" y1="865.52" x2="581.54" y2="616.47" gradientTransform="matrix(1, 0.05, 0.02, -1, -26.84, 1311.96)" xlink:href="#linear-gradient"/><linearGradient id="linear-gradient-7" x1="277.37" y1="741.61" x2="379.25" y2="555.58" gradientTransform="matrix(1, 0, 0, -1, 0, 1350)" xlink:href="#linear-gradient"/></defs><title>Pringles Logo Vector</title><ellipse class="cls-1" cx="484.2" cy="386.86" rx="215.27" ry="165.11" transform="translate(-333.14 -85.63) rotate(-10.57)"/><path class="cls-2" d="M446.47,291.4c1.77,13.76-4.44,25.3-14.21,25.74S412.73,306,411,292.28c-1.78-14.2,4.88-25.3,14.65-25.74s19.08,10.65,20.86,24.86Z" transform="translate(-270.4 -181)"/><path class="cls-2" d="M594.72,276.75c.89,12.43-4.88,21.75-13.31,20.86s-16.43-11.54-17.76-24c-.89-12.43,5.33-21.3,14.2-20.42,8,.89,15.54,11.1,16.87,23.53Z" transform="translate(-270.4 -181)"/><path class="cls-2" d="M656.42,313.59a1.74,1.74,0,0,0-2.66,2.22c4.44,9.32,4,23.08-9.77,23.08-15.53,0-36.4-20-64.8-20-20,0-42.17,13.76-44,44.38-13.31-20.41-36.39-34.17-64.8-34.17-51.49,0-87.89,62.58-131.39,62.58-18.64,0-24.41-16.87-20-29.29.44-2.22-1.78-3.55-3.11-2.22-14.65,11.54-20,31.51-20,51C296,463.62,349.26,508,420.28,508c67.47,0,124.73-40.84,127.39-99.87,13.76,20,37.29,31.51,60.37,31.51,38.17,0,73.68-27.08,73.68-72.35C681.28,346,670.18,321.58,656.42,313.59Z" transform="translate(-270.4 -181)"/><path class="cls-2" d="M414.51,182.2c-28-.88-52.38,25.3-54.15,58.15v5.33a2.09,2.09,0,0,0,2.22,2.22H363c.89,0,2.22-.89,2.22-1.78,6.21-26.63,31.07-45.27,59-44.39,6.22.45,12.88,1.34,18.65,4,1.77.89,3.55,0,4.88-1.78s1.33-4.43-.44-5.77C438,188.42,426.49,182.65,414.51,182.2Z" transform="translate(-270.4 -181)"/><path class="cls-2" d="M608.48,221.71c-.44-1.78-.89-3.11-1.33-4.44-4.88-14.65-14.2-26.19-25.74-32.4a31.84,31.84,0,0,0-25.31-2.22c-8.43,2.66-15.09,9.32-19.53,18.2a4.24,4.24,0,0,0,1.34,5.32,4,4,0,0,0,5.32,0,37.85,37.85,0,0,1,11.1-5.77c19.53-6.66,40.39,2.67,50.16,22.2a2.45,2.45,0,0,0,2.22,1.33h.88C608.48,224.37,608.93,223,608.48,221.71Z" transform="translate(-270.4 -181)"/><text class="cls-3" transform="translate(444.85 504.42)">®</text><path class="cls-4" d="M706.13,594.12l1.34,1.33c1.33,1.33,2.21,1.33,3.1-.44a133.4,133.4,0,0,0,4-13.32c.88-3.11,4.88-16.87,4.88-17.76.44-1.33,0-1.33-.89-2.22a62.3,62.3,0,0,0-14.65-11.54c-22.63-12.42-36.39-1.77-41.72,7.11-9.32-14.21-31.51-16-46.61-3.11.45-5.33.89-22.64,1.34-30.18a6.69,6.69,0,0,0-1.78-4.89l-2.66-2.66c-7.11-5.33-17.31-8.43-28.41-2.22-.45.44-4.44,2.22-8.88,4.88V508.89c0-7.1-5.33-11.09-10.21-11.09a12.81,12.81,0,0,0-7.54,2.66C549,505.79,529,519.1,519.26,524a19,19,0,0,0-3.1,1.77,12.79,12.79,0,0,1-3.55,1.78,53.54,53.54,0,0,1-10.21-2.22c-5.33-1.33-35.51-8-40.4-8.88a32,32,0,0,0-5.77-.44,12.28,12.28,0,0,0-9.76,4,11.78,11.78,0,0,0-2.66,8.88l.44,2.66c.44,2.22.44,5.33.89,8.44.44,4.43,1.33,13.76,1.33,21.74v4c-3.55-4-11.1-3.11-17.76,1.33l-4,2.66c-5.33,4-9.77,6.22-14.65,7.11-4.44.88-8.43,0-11.1,2.22a3.77,3.77,0,0,0-1.33,2.22c-.89,1.77-.89,3.1-.44,5.32,0,.45.44.89.44,1.78.89,2.66,2.67,5.77,4,8.87,2.22,4.44,4.44,9.33,6.21,12,.45.89.89,1.33,1.33,1.33-4,1.78-8,6.22-9.32,8-1.77-.89-3.55-.44-6.21,1.33-3.11,2.22-8.44,4.44-11.1,6.66C379,598.11,346.15,583,301.77,623A122.6,122.6,0,0,0,288,637.62c-2.22,2.66-1.78,4,0,6.66,1.33,2.21,1.77,13.76,1.33,23.52-1.33,33.29-3.55,92.33-4.89,123-.44,8-2.21,20,8.88,26.19,8.44,4.88,16.43.45,25.75-6.66,6.21-4.88,17.75-14.64,17.75-14.64V781.88c.45-7.55.89-22.2,1.78-33.74,0-3.11.44-5.77.44-8.43,7.55-7.1,16.87-16,24-25.75-.89,14.21-1.78,45.72-2.22,47,3.11,2.22,6.22,4.44,8.88,6.66,12.87-9.32,25.3-17.75,38.17-25.3.45-6.21.45-12,.89-18.2a13.47,13.47,0,0,0,3.55,3.55c4,3.11,9.32,4,15.09,3.11a37.1,37.1,0,0,0,19.09-9.77,303,303,0,0,1,29.74-14.2c5.77-2.66,7.54-3.55,7.54-7.1v-.89a19.29,19.29,0,0,0,8.44,1.78,16.46,16.46,0,0,0,4.44-.45c.88,4.89,8.87,24,35.06,27.08,12,1.33,21.31-.44,28.41-4.44a25.59,25.59,0,0,0,3.55-2.66c14.2-11.1,13.76-31.07,14.2-40.84.45,0,6.66,7.55,20,3.11,6.21-1.78,10.65-7.1,16-11.1,5.77,5.33,15.09,8.88,24,8.88,7.54,0,15.09-2.66,24.41-9.77,4.44,3.55,17.76,13.32,33.29,9.32a21.46,21.46,0,0,0,11.1-6.65c6.21-7.11,8.87-16.87,7.54-29.74-.88-11.1-5.77-23.08-9.32-33.29-3.11-8-4.44-12.43-5.32-15.09C700.36,591,701.69,590.57,706.13,594.12ZM509.94,579.91c-4-5.32-8.43-6.65-12.87-7.1h-4.88c5.77-4.88,12-10.65,16-13.76,8-6.66,10.65-7.54,11.54-8A18.93,18.93,0,0,1,525,552c3.11.89,7.11,1.78,11.1,3.11C525,559.5,513.49,569.7,509.94,579.91Z" transform="translate(-270.4 -181)"/><path class="cls-5" d="M563.65,507.12c-9.32,6.21-29.3,19.09-39.06,24-9.77,5.32-8,5.77-23.08,2.22-6.22-1.33-35.51-8-39.51-8.44-6.65-.88-8.43-.44-8.43,2.67.44,2.66.89,6.65,1.33,11.09a216.7,216.7,0,0,1,1.33,22.2c0,3.55.45,7.1.45,9.76,0,4.88-.45,8.88,1.77,11.1a2.69,2.69,0,0,0,2.67,1.33c4.43.89,12-5.77,16.86-10.21,8-6.66,18.65-16,24.42-21.3,8.43-6.66,12.42-8.88,15.53-9.77,0,0,2.22-.44,8.88.89,4,.89,8.43,2.22,13.76,3.55,12.43,3.55,21.31,6.21,25.3,5.33,4.44-.89,3.11-6.66,2.66-11.54a115.92,115.92,0,0,1-.88-14.21c-.45-8.43,0-17.75,0-18.64C567.65,505.34,565.87,505.79,563.65,507.12Z" transform="translate(-270.4 -181)"/><path class="cls-6" d="M447.8,685.11c-.44.45-1.33.89-1.78,1.33s-.44.45-.44.89.44,1.78.44,2.22c-1.77,1.33-2.66,2.22-3.55,2.22-2.66.44-2.22-3.11-2.22-5.33.45-9.32,3.56-76.79,3.56-76.79s-.89-1.77-1.78-1.33c-3.11,1.78-13.32,9.77-16.87,12.43-.44.44-2.66,61.25-4,83.45,0,.44-1.33-1.78-1.33-.89-.45,2.66,0,9.77,4.43,12,1.34.89,3.56.89,6.22.45a18.74,18.74,0,0,0,4.44-1.78c7.54-4.44,12.87-14.2,13.31-17.31-.44-3.55-.44-9.76-.44-11.54Z" transform="translate(-270.4 -181)"/><path class="cls-6" d="M447.8,586.13c1.78-12.87-6.66-12-8.43-11.1-.89.44-1.34,2.22-2.22,2.66A61,61,0,0,0,429.6,583c-10.65,8-17.31,5.77-17.31,5.77,2.66,2.22,4,5.77,6.21,8.88l-.44.44c2.22,3.55,7.55,8.88,15.09,7.1C441.14,603.88,446.47,594.12,447.8,586.13Z" transform="translate(-270.4 -181)"/><path class="cls-6" d="M415.84,624.3c-.44-.44-1.33,0-1.33,0-1.78.89-4,3.55-7.1,7.1-7.1,8.44-7.55,17.76-8.88,23.53a6.4,6.4,0,0,1-.89-2.67c.45-5.32.89-11.09,1.33-16.42l-1.33-1.33c-5.32,4.44-10.65,9.32-16,14.2,0,7.55-.88,17.31-.88,22.2-1.78,25.74-3.56,51.49-5.33,76.79.44.44.89.89,1.33.89,6.21-4.44,12.43-8.88,18.2-12.88.89-16,1.77-32,2.22-47.94.89-20.41,12-35.51,17.75-39.5a29.47,29.47,0,0,1,.45-4.44c.44-4.44,1.33-15.53,1.77-19.09C417.17,625.19,416.73,624.74,415.84,624.3Z" transform="translate(-270.4 -181)"/><path class="cls-6" d="M514.38,658a5.48,5.48,0,0,1-2.22.88c-.89.45-.89.89-.89.89a6.6,6.6,0,0,0,.89,1.78c-1.77.88-2.66,1.77-3.55,1.77a2.3,2.3,0,0,1-1.78-.89c-.44-.88-.44-1.77-.44-7.1.44-10.65.89-25.74,1.33-26.19.45-4.88.45-9.32.89-12.87v-7.1c0-1.33-.44-2.22-.44-3.55-1.34-10.65-5.77-18.2-13.32-18.2-1.33,0-2.22,1.77-4,2.66-6.66,2.67-12,13.76-14.65,23.08.44-3.1-.89.89-.89-2.22,0-4.88.89-16.86.89-16.86-.45-.45-.89-.89-1.33-.89-.45-.44-.45-.44-1.34,0-3.55,2.22-10.65,8-15.53,10.21,0,8.88-.89,21.75-1.33,25.74-.89,17.76-5.33,72.35-5.33,72.35l1.33,1.34,18.65-9.33c.88-18.64,1.77-37.28,2.66-56.37.44-8.87,7.1-15.53,11.54-17.31.89-.44,2.66-.44,3.55,2.22-.44,13.76-1.33,28.85-1.78,40.39a57.15,57.15,0,0,0-.44,8.44v1.33c0,.44-1.33,1.33-1.33,2.22a4.88,4.88,0,0,0,.44,2.22c.45,3.55,2.67,9.32,10.21,9.32a22.48,22.48,0,0,0,4.88-.89c7.55-3.11,13.32-12,13.32-14.65a104.9,104.9,0,0,1,0-12.42Z" transform="translate(-270.4 -181)"/><path class="cls-6" d="M703,645.61c1.33-17.76-11.1-37.29-14.65-50.6a25.85,25.85,0,0,1-.45-12.88,15.59,15.59,0,0,1,2.67-4c5.32-4,12,1.77,12.43,2.22.44-.45,3.1-9.32,3.55-11.1a12.27,12.27,0,0,0-2.67-2.66,39.57,39.57,0,0,0-5.32-4.44,23.63,23.63,0,0,0-8.44-1.78,19.74,19.74,0,0,0-14.2,5.77c-9.76,10.21-9.32,25.75,1.78,46.61.44.89,0,2.22.88,3.11,5.33,9.76,10.66,21.75,6.66,30.18-1.33,3.55-4.88,4.88-9.76,3.55-7.11-2.22-17.31-14.2-17.31-14.65-1.34,1.78-7.55,8.44-13.76,11.1-.45,0-.45-.89-.45-1.77a10.8,10.8,0,0,1-5.77.88c-4.44-.44-8.88-5.77-9.32-18.2v-4.88c11.54-1.33,20-3.55,29.74-6.21,1.33-5.33,4-20,2.66-33.29-.89-8.44-2.22-13.76-5.32-17.31-3.56-4.44-8.88-6.22-12.88-6.66h-5.32c.88.44,5.77,1.33,5.32,1.33q-5.33-.66-12,2.66c-17.31,8.88-24.41,45.72-19.09,71.91.45,2.66.45,4.44.89,6.21-5.77,5.33-11.54,10.21-13.32,5.33-.44-.89-.44-2.22-.88-3.55a92.89,92.89,0,0,1,.44-9.32c.44-5.33,4.88-95,5.77-107.86a6.51,6.51,0,0,1-1.33-.89,1.64,1.64,0,0,0-1.33-.44c-1.33-.45-3.55-.89-4.44-.45-6.66.45-11.54,5.77-12,16.43-2.22,33.73-4,67.91-6.21,101.64,0,.45-2.66,13.32,3.11,20.86a14.5,14.5,0,0,0,8,4.89,14.82,14.82,0,0,0,7.54-.45c8.88-3.1,16.43-10.65,19.09-15.53,1.33,2.66,4.44,5.77,7.54,8,5.33,4.44,12.43,5.77,20,4,5.77-1.77,10.65-5.77,15.53-10.21,4.89,4,14.21,11.1,21.75,12,7.55,1.33,13.32-1.33,16.87-5.33A35.47,35.47,0,0,0,703,645.61Zm-70.14-58.15c4-11.1,10.66-12,11.55-2.22a88,88,0,0,1-.89,20.86V607a45.64,45.64,0,0,1-15.09,3.11A73,73,0,0,1,632.89,587.46Zm-62.58-23.08a.44.44,0,0,0-.45.44,1.54,1.54,0,0,1-.44.89c-11.1-2.22-15.09,5.33-16,7.55-3.55-4-12-4.89-20,1.77a31.19,31.19,0,0,0-7.1,8c-6.22,9.77-9.77,24.86-10.21,40-.45,17.31.44,29.74,4,38.17,3.55,8.88,9.32,13.32,15.54,13.76,12,.89,14.64-10.21,14.64-8.88,0,17.32-.44,27.52-8.87,30.63-9.32,3.11-17.76-4-21.31-8.88,0,0-3.55,4-5.33,5.77-1.77,2.67-2.21,4.44,0,7.55,6.66,9.32,18.65,13.32,29.3,12a23.54,23.54,0,0,0,11.1-4.44c8-6.22,11.09-13.32,11.54-38.62,0-6.21,0-12.87.44-20.42.89-24,2.66-57.7,3.55-71,.45-7.1.89-12,.89-12A3.77,3.77,0,0,0,570.31,564.38Zm-20.86,79a52.72,52.72,0,0,1-1.78,8.87c-6.66,15.54-13.76,1.34-13.32-28.4.45-17.31,4.89-30.63,8.88-34.63,2.67-2.66,8-5.32,8.88,3.56C552.11,601.22,549.89,638.5,549.45,643.39Z" transform="translate(-270.4 -181)"/><path class="cls-6" d="M374.12,646.49a55,55,0,0,0-1.33-12.87C369.68,621.19,362.13,615,351.92,615c-8,0-15.53,4.44-22.19,8.88-8.88,5.77-16.87,14.2-22.64,20.42-.44.44,2.22.88,1.33,18.64-1.77,35.51-4.43,104.75-6.21,131.38,0,.89-1.33.89-1.78,2.22a1.63,1.63,0,0,1-.44,1.33c0,1.34,0,4.44.89,6.22a3.22,3.22,0,0,0,3.55.89c2.22-.89,4.44-2.67,7.1-5.33,4.88-3.55,11.1-8.88,11.1-8.88V778.32c.44-11.09,1.77-30.18,2.66-44.83C351.92,716.63,374.56,685.11,374.12,646.49ZM342.6,692.21c-4.44,11.1-10.21,17.31-15.09,21.31.44-9.32,2.22-59,2.66-69.24,4-4.44,8.88-7.55,12.43-8C353.7,636.73,351.48,669.13,342.6,692.21Z" transform="translate(-270.4 -181)"/><path class="cls-7" d="M445.58,686.89l-.89.88a18.42,18.42,0,0,1-3.55,2.67,1.35,1.35,0,0,1-1.77,0c-1.34-.45-.89-3.55-.89-5.33.44-9.32,3.55-76.79,3.55-76.79s-14.2,8-18.64,11.1c-.45.44-2.67,61.25-4,83.45-.44,4.88.89,8.87,3.11,10.65,2.66,1.77,6.66,1.33,10.65-.89,7.55-4.44,12.87-14.2,13.32-17.31,0-4,.44-8.43.44-8.88C446,686.44,446,686.44,445.58,686.89Z" transform="translate(-270.4 -181)"/><path class="cls-8" d="M446,580.36c-.44-2.67-1.33-4.44-2.66-5.33-1.77-.89-4.44-.44-8,1.33a59.9,59.9,0,0,0-7.54,5.33c-10.66,8-17.32,5.77-17.32,5.77,2.67,2.22,4,5.77,6.22,8.88,2.22,4,6.66,9.32,14.65,7.54C440.7,602.11,446.91,588.79,446,580.36Z" transform="translate(-270.4 -181)"/><path class="cls-9" d="M406.08,630.07a.44.44,0,0,1-.45.45c-4.88,6.21-7.1,13.31-9.76,27.52.44-8,1.33-15.54,1.77-23.53-5.77,4.44-12,8.43-17.75,12.87,0,7.55-.89,17.31-.89,22.2-1.33,26.18-2.66,51.93-4,78.12,6.22-4.44,12.43-8.88,18.2-12.87l2.67-47.94c.88-20.42,12-35.51,17.75-39.51a29.58,29.58,0,0,1,.45-4.44c.44-4.44,1.33-15.53,1.77-19.08C415.84,623.41,411,624.3,406.08,630.07Z" transform="translate(-270.4 -181)"/><path class="cls-10" d="M512.16,658.92c-.89.45-3.55,2.22-4,2.22a2.81,2.81,0,0,1-2.67,0c-1.33-.89-.88-3.55-.88-5.32V653.6c.44-10.66.88-25.75,1.33-26.19.44-4.88.44-9.32.88-12.87v-7.11a9.85,9.85,0,0,0-.44-3.55c-1.33-9.76-5.33-16.86-12-16.86a32.94,32.94,0,0,0-5.33.88c-5.77,2.22-10.65,11.54-13.76,20.42,0,.45-1.33,3.55-1.78,4.88s-.44.89-.44,0c.44-6.21.89-17.75.89-20.41,0-.45,0-.45-.45-.45a40.48,40.48,0,0,1-4.43,2.22c-5.77,3.11-15.1,8-15.1,8,1.78,1.78,1.78,6.22,1.34,10.21-.45,6.21-.89,12-.89,14.2-.89,20-4,73.69-4,73.69l18.65-9.32c.88-18.65,1.77-37.29,2.66-56.38.44-8.87,7.1-15.53,11.54-17.31.89-.44,2.66-.44,3.55,2.22-.44,13.76-1.33,28.85-1.77,40.39a55.89,55.89,0,0,0-.45,8.44V670c-.44,4.88.89,9.32,3.11,11.1,2.66,2.66,6.66,2.66,10.65,1.33,7.55-3.11,13.32-12,13.32-14.65,0-3.11.44-7.1.44-8.88Z" transform="translate(-270.4 -181)"/><path class="cls-11" d="M700.81,633.18A33.06,33.06,0,0,0,699,627c-5.32-16-16-34.62-12.87-44.83a7.8,7.8,0,0,1,3.11-4.88c5.32-4,12,1.78,12.42,2.22.45-.89,4-11.54,4-11.54-3.11-3.55-8.88-8.43-16.87-8.43a19.7,19.7,0,0,0-14.2,5.77c-7.55,7.54-8.88,18.64-4.44,32.4,3.55,10.65,13.32,27.07,14.65,37.28.44,3.55.44,7.11-.89,9.77-1.33,3.55-4.88,4.88-9.77,3.55-7.1-2.22-17.31-14.65-17.31-15.09-2.66,3.11-19.53,22.64-27.07,4-2.22-5.32-2.22-12.43-2.22-16.86,11.54-1.34,20-3.56,29.74-6.22,1.77-7.54,6.21-35.06-2.22-47.94a16.56,16.56,0,0,0-14.21-7.54q-5.32-.68-12,2.66c-17.31,8.88-24.41,45.72-19.09,71.91.45,2.22.45,4.44.89,6.21-5.77,5.33-11.54,10.21-13.32,5.33a8.73,8.73,0,0,1-.44-3.55,92.89,92.89,0,0,1,.44-9.32c.45-5.77,5.78-107,5.78-107-.45,0-.89-.44-1.34-.44-9.76-2.66-17.31.44-18.2,13.76-1.77,32.85-3.55,65.25-4.88,98.1,0,5.77-2.66,21.75,5.33,27.52,4,2.66,8.88,2.66,13.31.88a75.11,75.11,0,0,0,8-4.88,49.47,49.47,0,0,0,9.77-10.21.43.43,0,0,0,.44.45c2.67,4,8,9.32,13.32,11.09a19.49,19.49,0,0,0,7.1.89c8.88.44,15.54-5.33,22.2-10.65,4.88,4.44,12,9.32,17.75,11.09,9.77,3.11,17.31.45,21.31-4C702.58,651.38,702.14,639.39,700.81,633.18Zm-69.69-47c4-11.1,10.65-12,11.54-2.22a88,88,0,0,1-.89,20.86v.89a45.56,45.56,0,0,1-15.09,3.11A73,73,0,0,1,631.12,586.13Z" transform="translate(-270.4 -181)"/><path class="cls-12" d="M569,563.93c-12-2.66-16,4.89-17.31,7.55-3.56-4-12-4.88-20,1.78a41.24,41.24,0,0,0-7.1,8c-6.21,9.76-9.77,24.85-10.21,39.94-.89,32.41,7.55,49.72,17.31,51.49,10.65,1.78,15.09-4.44,17.31-8.87v.44c0,12.43-.44,21.31-3.55,26.19s-10.21,6.21-16.87,3.1a28.34,28.34,0,0,1-9.32-8s-4,4-5.77,6.21c-1.77,2.66-2.22,4.44,0,7.55,7.55,10.65,22.2,14.2,33.74,11.09,21.3-5.77,17.31-33.73,18.64-60.36.89-24,2.66-59.48,3.55-73.24.44-7.11.89-12,.89-12C569.86,563.93,569.42,563.93,569,563.93Zm-20.87,77.68a51.69,51.69,0,0,1-1.77,8.88c-6.66,15.53-13.76,1.33-13.32-28.41.45-17.31,4.89-30.63,8.88-34.62,2.66-2.66,8-5.33,8.88,3.55C550.78,599.89,548.11,637.17,548.11,641.61Z" transform="translate(-270.4 -181)"/><path class="cls-13" d="M372.79,645.16c0-13.76-4-24-11.55-28.41-11.54-6.65-25.74.45-32.84,5.33-8.88,5.77-16.87,14.21-22.64,20.42-.44.44,2.22.89,1.33,18.64-1.77,37.29-4.88,111.86-6.21,135.38-.45,10.21,2.22,8.44,13.76-.88,4-3.11,7.54-6.22,7.54-6.22V777c.45-11.09,1.78-30.18,2.67-44.83C350.15,715.74,372.79,683.78,372.79,645.16Zm-32,45.72c-4.44,11.1-10.21,17.31-15.1,21.31.45-9.32,2.22-59,2.67-69.25,4-4.44,8.88-7.54,12.43-8C351.92,635.4,350.15,668.24,340.83,690.88Z" transform="translate(-270.4 -181)"/><path class="cls-14" d="M433.15,712.63l-.44.45c-4,2.21-8,2.66-10.65.88-1.78-1.33-3.56-5.32-3.11-10.65,1.33-22.19,4-83.45,4-83.45.89-.89,2.22-1.33,3.55-2.66-.44,5.77-2.66,61.7-4,83v2.22c0,4.44,1.33,8,3.11,9.32A8.9,8.9,0,0,0,433.15,712.63ZM420.28,595c-1.33-2.22-2.66-5.33-4.44-7.11a10.07,10.07,0,0,1-5.77,0c2.66,2.22,4,5.77,6.21,8.88,2.22,3.55,6.66,9.32,14.65,7.55a8.5,8.5,0,0,0,4.44-2.22c-.44,0-.44,0-.89.44C426.94,603.88,422.94,598.56,420.28,595Zm-10.65,32.4a.43.43,0,0,1,.44-.45l1.33-1.33a40.34,40.34,0,0,0-5.32,4.44.44.44,0,0,1-.45.44l-2.66,4a61,61,0,0,0-5.77,17.31,23.36,23.36,0,0,0-.89,5.77s-.44,2.22-.44,2.66C398.09,654,402.08,637.17,409.63,627.41ZM379,741.48c1.33-24.85,2.22-49.71,3.55-74.57.44-4.88.89-14.2.89-21.75l-4,2.67c0,7.54-.88,17.31-.88,22.19-1.34,26.19-2.67,51.93-4,78.12a24.82,24.82,0,0,0,3.55-2.66C378.56,745.48,379,742.37,379,741.48ZM489.08,588.35c-4.44,1.77-8,7.54-11.1,13.76-1.33,3.55-3.1,7.54-4.44,11.54v1.77C477.1,606.55,485.09,592.34,489.08,588.35Zm3.11,91.43c-1.78-1.77-3.11-5.77-3.11-10.2V666c0-2.66.44-5.32.44-8.43.45-11.1,1.34-25.74,1.78-39.06v-.44c-1.33-2.67-6.66-.45-7.55.44a2,2,0,0,1,2.22,0,5.9,5.9,0,0,1,1.33,1.78c-.44,13.76-1.33,28.85-1.77,40.39a57.08,57.08,0,0,0-.44,8.43v1.33c-.45,4.89.88,9.32,3.1,11.1,2.67,2.66,6.66,2.66,10.66,1.33.44-.44,1.33-.44,1.77-.89C497.51,682.45,494.41,682,492.19,679.78ZM455.79,694c.89-12.87,2.66-52.82,3.55-69.69.44-2.22.44-8,.89-14.2v-2.22c0-2.67-.45-5.33-1.33-6.66l-.45-.44c-2.22,1.33-3.55,1.77-3.55,2.21,1.78,1.78,1.78,6.22,1.33,10.21-.44,6.22-.88,12-.88,14.21-.89,20-4,73.68-4,73.68a26.61,26.61,0,0,0,3.55-1.77C455.35,698.87,455.35,696.21,455.79,694Zm157.13-67.91a128.63,128.63,0,0,1-.44-22.64c1.33-18.64,8-36.4,18.64-43.5-.44.44-1.33.44-1.78.89-13.76,7.1-20.86,30.62-20.86,53.26A101.83,101.83,0,0,0,611.14,639a37.21,37.21,0,0,0,3.56-2.66C614.25,636.29,613.36,631.85,612.92,626.08Zm66.14,35.51c-5.33-1.78-12.43-6.22-17.31-10.66L660,649.6a7.89,7.89,0,0,1-2.22,1.78s1.33,1.33,1.78,1.33c4.88,4,11.09,8,16,9.76,5.77,1.78,10.21,1.78,14.2.45A23.49,23.49,0,0,1,679.06,661.59Zm-91.44.88c-5.33-3.55-5.77-11.09-5.77-17.75v-.89c0-4,.44-7.54.44-10.21,1.78-32.84,3.55-65.25,4.89-98.09.44-5.77,1.77-9.77,4.43-12-4.43,1.33-8,5.77-8,14.21-1.77,32.84-3.55,65.24-4.88,98.09,0,5.77-2.66,21.75,5.33,27.52a12.51,12.51,0,0,0,12.43,1.33A12.71,12.71,0,0,1,587.62,662.47Zm114.52-87c-5.33-2.66-9.77-.88-12.87,2.22a7.24,7.24,0,0,1,4.88-1.77c4,0,7.54,3.11,8,3.55,0-.44.44-1.33.89-3.11A1,1,0,0,0,702.14,575.47ZM640,577.69c1.33.89,2.22,2.67,2.66,6.22a83.75,83.75,0,0,1-.89,20.42,4.42,4.42,0,0,0-.44,1.33,10.88,10.88,0,0,0,3.55-1.33,4.51,4.51,0,0,1,.44-1.34,70.14,70.14,0,0,0,1.33-12.87,29.7,29.7,0,0,0-.44-6.66c-.44-3.1-1.33-5.32-2.66-6.21-1.33-1.33-4-.89-6.66.44C639.11,576.81,640,577.69,640,577.69Zm-7.55,82.56c-4-1.33-7.55-4.43-10.65-7.54a38.42,38.42,0,0,1-4.44-5.77l-2.66,2.66a15.37,15.37,0,0,0,3.55,4.44,26.46,26.46,0,0,0,10.21,7.1,19.49,19.49,0,0,0,7.1.89,33.82,33.82,0,0,0,6.66-.89h-3.11A18.35,18.35,0,0,1,632.45,660.25Zm55.48-17.75a13.68,13.68,0,0,0,1.34-5.77,30.53,30.53,0,0,0-2.22-10.65c-.89-2.22-7.55-16-10.21-23.09-3.55-8.43-5.33-14.64-5.33-20.41,0-10.21,2.66-15.09,6.22-19.09.44-.44,2.22-1.78,2.22-2.22a19.73,19.73,0,0,0-4.89,3.55c-8,8-9.32,20-3.55,35.51,5.77,15.09,17.76,32.85,12.43,44.39a6.35,6.35,0,0,1-6.21,4A11.38,11.38,0,0,0,687.93,642.5ZM544.12,692.21c5.77-3.55,7.1-8.43,8-17.31.44-3.55,0-16.42,0-16a56,56,0,0,1-3.55,5.33v5.33a45.06,45.06,0,0,1-.45,8c-.44,4.88-1.33,10.65-4.43,14.2A14.26,14.26,0,0,1,541,694a3.4,3.4,0,0,1-2.22.89C541,694,542.34,693.1,544.12,692.21Zm14.65-127.83c-1.33.44-2.22,1.33-3.55,1.77a13.58,13.58,0,0,0-4,5.33,11.06,11.06,0,0,1,1.78,2.66C553.89,571,556.55,565.71,558.77,564.38ZM517.49,697.1c-1.33-1.78-1.78-3.11-1.33-4.44v-.45a5.88,5.88,0,0,1,1.33-3.55,11.6,11.6,0,0,1,2.22-2.66c-.45-.44-.45-.44-.45-.89,0,0-4,4-5.77,6.22-1.77,2.66-2.22,4.43,0,7.54,7.55,10.65,22.2,14.21,33.74,11.1.88-.45,1.77-.45,2.66-.89C538.79,711.3,524.59,707.75,517.49,697.1Zm17.75-25.75c-9.32-1.77-17.31-17.31-17.31-46.16V619c.45-15.09,4-30.18,10.21-39.94a41.54,41.54,0,0,1,7.1-8h.45c-1.34.88-2.67,1.33-4,2.66a31.56,31.56,0,0,0-7.1,8c-6.21,9.76-9.77,24.86-10.21,39.95-.89,32.4,7.55,49.71,17.31,51.49a14.89,14.89,0,0,0,10.21-1.33A29,29,0,0,0,535.24,671.35Zm18.65-80.78c-.45-3.11-.89-4.89-2.22-5.77-2.67-1.78-7.11.44-8.44,1.77a3.76,3.76,0,0,1,2.67-.89,1.62,1.62,0,0,1,1.33.45c1.33.44,2.66,2.22,2.66,5.77.44,8-1.78,45.27-2.22,50.16a52.74,52.74,0,0,1-1.77,8.87,15,15,0,0,1-1.34,2.67,9.66,9.66,0,0,1-1.33,2.22c-.44.44-.89.88-1.33.88,2.22-.44,5.33-2.66,7.55-6.65.44-.45.44-1.34.88-1.78a28.61,28.61,0,0,0,1.78-8.88c.44-4,2.22-34.62,2.22-46.6A4.88,4.88,0,0,1,553.89,590.57ZM340.83,690.88a61.48,61.48,0,0,1-7.11,13.32,42.48,42.48,0,0,1-6.21,6.66c-.44.44-1.33.88-1.78,1.33v.89c5.33-3.56,13.77-12.43,18.65-24.42,8.88-23.08,10.65-55.48,0-55.48-2.22,0-4.88,1.33-7.55,3.55a8.4,8.4,0,0,1,4-1.33C351.92,635.4,350.15,668.24,340.83,690.88ZM304,794.75c1.33-24,4.43-98.1,6.21-135.38.89-17.76-1.33-18.2-1.33-18.65a114.89,114.89,0,0,1,21.3-19.53c-.88.45-1.33.89-2.22,1.34-8.87,5.77-16.86,14.2-22.63,20.41-.45.45,2.22.89,1.33,18.65-1.78,37.28-4.88,111.85-6.22,135.38,0,3.1,0,4.88.45,6.21,1.33,2.66,6.21-1.33,9.32-3.55C304.43,802.74,303.54,802.74,304,794.75Z" transform="translate(-270.4 -181)"/></svg>