<?xml version="1.0" encoding="iso-8859-1"?>
<!-- Generator: Adobe Illustrator 26.0.1, SVG Export Plug-In . SVG Version: 6.00 Build 0)  -->
<svg version="1.1" id="Layer_1" xmlns="http://www.w3.org/2000/svg" xmlns:xlink="http://www.w3.org/1999/xlink" x="0px" y="0px"
	 viewBox="0 0 500 500" style="enable-background:new 0 0 500 500;" xml:space="preserve">
<g id="watermark_1_">
	<g>
		<g id="watermark" style="opacity:0.61;">
			<g>
				<g>
					<g>
						<g>
							<polygon style="fill:#FFFFFF;" points="213.765,461.172 208.204,474.017 205.268,474.017 199.726,461.172 202.938,461.172 
								206.846,470.347 210.81,461.172 							"/>
						</g>
						<g>
							<path style="fill:#FFFFFF;" d="M223.507,469.741h-7.469c0.275,1.23,1.321,1.982,2.826,1.982c1.046,0,1.798-0.312,2.477-0.954
								l1.523,1.651c-0.917,1.046-2.294,1.597-4.074,1.597c-3.413,0-5.634-2.147-5.634-5.083c0-2.954,2.257-5.083,5.267-5.083
								c2.899,0,5.138,1.945,5.138,5.12C223.562,469.191,223.526,469.503,223.507,469.741 M216.002,468.071h4.863
								c-0.202-1.248-1.138-2.055-2.422-2.055C217.139,466.016,216.204,466.805,216.002,468.071"/>
						</g>
						<g>
							<path style="fill:#FFFFFF;" d="M224.735,468.934c0-2.973,2.294-5.083,5.505-5.083c2.074,0,3.707,0.899,4.423,2.514
								l-2.22,1.193c-0.532-0.936-1.321-1.358-2.221-1.358c-1.45,0-2.587,1.009-2.587,2.734c0,1.725,1.138,2.734,2.587,2.734
								c0.899,0,1.688-0.404,2.221-1.358l2.22,1.211c-0.716,1.578-2.349,2.495-4.423,2.495
								C227.029,474.017,224.735,471.907,224.735,468.934"/>
						</g>
						<g>
							<path style="fill:#FFFFFF;" d="M242.828,473.393c-0.587,0.422-1.45,0.624-2.331,0.624c-2.33,0-3.688-1.193-3.688-3.542
								v-4.055h-1.523v-2.202h1.523v-2.404h2.863v2.404h2.459v2.202h-2.459v4.019c0,0.844,0.458,1.303,1.229,1.303
								c0.422,0,0.844-0.128,1.156-0.367L242.828,473.393z"/>
						</g>
					</g>
					<g>
						<path style="fill:#FFFFFF;" d="M262.474,463.997v2.643c-0.238-0.018-0.422-0.037-0.642-0.037
							c-1.578,0-2.624,0.862-2.624,2.753v4.661h-2.863v-9.873h2.734v1.303C259.776,464.493,260.951,463.997,262.474,463.997"/>
					</g>
					<g>
						<path style="fill:#FFFFFF;" d="M263.299,472.53l1.009-2.239c1.083,0.789,2.697,1.339,4.239,1.339
							c1.762,0,2.477-0.587,2.477-1.376c0-2.404-7.469-0.752-7.469-5.524c0-2.184,1.762-4,5.413-4c1.615,0,3.267,0.385,4.459,1.138
							l-0.918,2.257c-1.193-0.679-2.422-1.009-3.56-1.009c-1.761,0-2.44,0.66-2.44,1.468c0,2.367,7.468,0.734,7.468,5.45
							c0,2.147-1.78,3.982-5.45,3.982C266.492,474.017,264.437,473.411,263.299,472.53"/>
					</g>
					<g>
						<path style="fill:#FFFFFF;" d="M285.428,469.741h-7.469c0.275,1.23,1.321,1.982,2.826,1.982c1.046,0,1.798-0.312,2.477-0.954
							l1.523,1.651c-0.918,1.046-2.294,1.597-4.074,1.597c-3.413,0-5.634-2.147-5.634-5.083c0-2.954,2.257-5.083,5.267-5.083
							c2.9,0,5.138,1.945,5.138,5.12C285.484,469.191,285.447,469.503,285.428,469.741 M277.923,468.071h4.863
							c-0.202-1.248-1.138-2.055-2.422-2.055C279.061,466.016,278.125,466.805,277.923,468.071"/>
					</g>
					<g>
						<path style="fill:#FFFFFF;" d="M297.007,469.741h-7.469c0.275,1.23,1.321,1.982,2.826,1.982c1.046,0,1.798-0.312,2.477-0.954
							l1.523,1.651c-0.918,1.046-2.294,1.597-4.074,1.597c-3.413,0-5.634-2.147-5.634-5.083c0-2.954,2.257-5.083,5.267-5.083
							c2.899,0,5.138,1.945,5.138,5.12C297.062,469.191,297.025,469.503,297.007,469.741 M289.501,468.071h4.863
							c-0.202-1.248-1.138-2.055-2.422-2.055C290.639,466.016,289.703,466.805,289.501,468.071"/>
					</g>
					<g>
						<polygon style="fill:#FFFFFF;" points="303.208,470.145 301.831,471.503 301.831,474.017 298.969,474.017 298.969,460.401 
							301.831,460.401 301.831,468.108 306.016,464.144 309.429,464.144 305.318,468.328 309.796,474.017 306.327,474.017 						"/>
					</g>
					<g>
						<path style="fill:#FFFFFF;" d="M256.601,475.359L256.601,475.359l-2.86-2.86c-0.435,0.508-0.953,0.943-1.534,1.284
							c-0.092,0.069-0.186,0.136-0.283,0.199l3.027,3.027c0.456,0.456,1.195,0.456,1.65,0
							C257.057,476.554,257.057,475.815,256.601,475.359"/>
					</g>
					<g>
						<path style="fill:#FFFFFF;" d="M249.984,463.244c0.221-0.173,0.495-0.281,0.797-0.281c0.042,0,0.083,0.002,0.124,0.006
							c-0.214-0.156-0.478-0.249-0.764-0.249c-0.395,0-0.744,0.18-0.981,0.458c-0.051,0-0.1,0.006-0.151,0.008
							c0.039-0.077,0.064-0.162,0.064-0.255c0-0.234-0.143-0.434-0.346-0.519c0.087,0.126,0.138,0.279,0.138,0.445
							c0,0.122-0.031,0.237-0.081,0.341c-2.811,0.201-5.03,2.539-5.03,5.4c0,2.993,2.426,5.42,5.42,5.42
							c2.993,0,5.42-2.426,5.42-5.42C254.595,465.879,252.593,463.635,249.984,463.244 M247.983,464.656
							c0.435,0,0.844,0.112,1.199,0.309c0.374-0.245,0.82-0.387,1.299-0.387c0.711,0,1.348,0.312,1.784,0.806
							c-0.435-0.379-1.004-0.61-1.627-0.61c-0.449,0-0.87,0.12-1.234,0.329c-0.079,0.046-0.156,0.096-0.229,0.15
							c-0.065-0.048-0.133-0.093-0.204-0.134c-0.369-0.219-0.8-0.344-1.26-0.344c-0.3,0-0.588,0.054-0.854,0.152
							C247.196,464.754,247.578,464.656,247.983,464.656 M251.772,469.098c0.115,0.305,0.181,0.634,0.181,0.979
							c0,1.534-1.244,2.777-2.778,2.777c-1.534,0-2.777-1.243-2.777-2.777c0-0.345,0.066-0.674,0.181-0.979
							c-0.62-0.382-1.035-1.064-1.035-1.846c0-1.197,0.971-2.168,2.168-2.168c0.565,0,1.078,0.218,1.463,0.572
							c0.386-0.354,0.899-0.572,1.464-0.572c1.197,0,2.168,0.971,2.168,2.168C252.807,468.034,252.392,468.716,251.772,469.098"/>
					</g>
					<g>
						<path style="fill:#FFFFFF;" d="M251.666,467.061c0,0.497-0.404,0.901-0.901,0.901c-0.497,0-0.901-0.404-0.901-0.901
							s0.404-0.901,0.901-0.901c0.101,0,0.197,0.017,0.287,0.047c-0.03,0.062-0.045,0.132-0.045,0.204
							c0,0.273,0.221,0.494,0.494,0.494c0.05,0,0.099-0.008,0.146-0.022C251.66,466.941,251.666,467,251.666,467.061"/>
					</g>
					<g>
						<path style="fill:#FFFFFF;" d="M248.255,467.061c0,0.376-0.305,0.681-0.681,0.681c-0.376,0-0.681-0.305-0.681-0.681
							s0.305-0.681,0.681-0.681c0.076,0,0.149,0.013,0.217,0.035c-0.023,0.047-0.034,0.1-0.034,0.155
							c0,0.206,0.167,0.374,0.374,0.374c0.038,0,0.075-0.006,0.11-0.017C248.25,466.97,248.255,467.015,248.255,467.061"/>
					</g>
					<g>
						<g>
							<g>
								<rect x="242.908" y="467.83" style="fill:#FFFFFF;" width="0.616" height="0.616"/>
							</g>
							<g>
								<rect x="254.827" y="467.83" style="fill:#FFFFFF;" width="0.616" height="0.616"/>
							</g>
							<g>
								<path style="fill:#FFFFFF;" d="M255.205,468.082h-0.14c0-3.248-2.642-5.89-5.89-5.89c-3.248,0-5.89,2.642-5.89,5.89h-0.14
									c0-1.611,0.627-3.125,1.766-4.264c1.139-1.139,2.653-1.766,4.264-1.766c1.611,0,3.125,0.627,4.264,1.766
									C254.578,464.957,255.205,466.471,255.205,468.082"/>
							</g>
						</g>
						<g>
							<rect x="248.868" y="461.814" style="fill:#FFFFFF;" width="0.616" height="0.616"/>
						</g>
						<g>
							<rect x="244.95" y="462.052" style="fill:#FFFFFF;" width="8.45" height="0.14"/>
						</g>
						<g>
							<path style="fill:#FFFFFF;" d="M245.174,462.15c0,0.108-0.088,0.196-0.196,0.196c-0.108,0-0.196-0.088-0.196-0.196
								c0-0.108,0.088-0.196,0.196-0.196C245.086,461.954,245.174,462.042,245.174,462.15"/>
						</g>
						<g>
							<path style="fill:#FFFFFF;" d="M253.596,462.15c0,0.108-0.088,0.196-0.196,0.196c-0.108,0-0.196-0.088-0.196-0.196
								c0-0.108,0.088-0.196,0.196-0.196C253.509,461.954,253.596,462.042,253.596,462.15"/>
						</g>
					</g>
				</g>
				<g>
					<path style="fill:#FFFFFF;" d="M314.356,473.409c0,1.559-2.364,1.559-2.364,0C311.993,471.851,314.356,471.851,314.356,473.409
						z"/>
				</g>
				<g>
					<g>
						<g>
							<path style="fill:#FFFFFF;" d="M161.739,466.549l1.772,6.088l1.855-6.088h2.215l-2.823,8.14h-2.33l-0.837-2.396l-0.722-2.708
								l-0.722,2.708l-0.837,2.396h-2.33l-2.839-8.14h2.231l1.855,6.088l1.756-6.088H161.739z"/>
						</g>
						<g>
							<path style="fill:#FFFFFF;" d="M176.713,466.549l1.772,6.088l1.855-6.088h2.215l-2.823,8.14h-2.33l-0.837-2.396l-0.722-2.708
								l-0.722,2.708l-0.837,2.396h-2.33l-2.839-8.14h2.231l1.855,6.088l1.756-6.088H176.713z"/>
						</g>
						<g>
							<path style="fill:#FFFFFF;" d="M191.687,466.549l1.772,6.088l1.855-6.088h2.215l-2.823,8.14h-2.33l-0.837-2.396l-0.722-2.708
								l-0.722,2.708l-0.837,2.396h-2.33l-2.839-8.14h2.231l1.855,6.088l1.756-6.088H191.687z"/>
						</g>
					</g>
					<g>
						<path style="fill:#FFFFFF;" d="M200.908,473.52c0,1.559-2.364,1.559-2.364,0C198.545,471.962,200.908,471.962,200.908,473.52z
							"/>
					</g>
					<g>
						<path style="fill:#FFFFFF;" d="M322.71,473.409c-0.935,0.919-1.919,1.28-3.117,1.28c-2.346,0-4.3-1.411-4.3-4.282
							s1.953-4.284,4.3-4.284c1.149,0,2.035,0.329,2.921,1.199l-1.264,1.329c-0.476-0.428-1.066-0.64-1.623-0.64
							c-1.346,0-2.33,0.985-2.33,2.396c0,1.542,1.05,2.362,2.297,2.362c0.64,0,1.28-0.18,1.772-0.672L322.71,473.409z"/>
					</g>
					<g>
						<path style="fill:#FFFFFF;" d="M331.805,470.472c0,2.33-1.591,4.217-4.217,4.217c-2.626,0-4.201-1.887-4.201-4.217
							c0-2.314,1.609-4.217,4.185-4.217C330.149,466.255,331.805,468.158,331.805,470.472z M325.389,470.472
							c0,1.231,0.739,2.38,2.199,2.38c1.46,0,2.199-1.149,2.199-2.38c0-1.215-0.854-2.396-2.199-2.396
							C326.144,468.077,325.389,469.258,325.389,470.472z"/>
					</g>
					<g>
						<path style="fill:#FFFFFF;" d="M338.572,474.689v-4.332c0-1.068-0.559-2.035-1.658-2.035c-1.082,0-1.722,0.967-1.722,2.035
							v4.332h-2.003v-8.107h1.855l0.148,0.985c0.426-0.82,1.362-1.116,2.133-1.116c0.969,0,1.937,0.394,2.396,1.51
							c0.723-1.149,1.658-1.478,2.708-1.478c2.297,0,3.43,1.412,3.43,3.84v4.365h-2.003v-4.365c0-1.066-0.442-1.97-1.526-1.97
							c-1.082,0-1.756,0.935-1.756,2.003v4.332H338.572z"/>
					</g>
				</g>
			</g>
		</g>
		<g style="opacity:0.61;">
			<g>
				<g>
					<path style="fill:#FFFFFF;" d="M345.988,431.299c-0.006-1.224-0.959-2.121-2.189-2.14c-0.924-0.014-0.832,0.12-0.834-0.867
						c-0.003-1.097-0.007-2.194,0.003-3.292c0.003-0.379-0.112-0.691-0.362-0.976c-2.342-2.668-4.678-5.342-7.019-8.011
						c-0.12-0.137-0.275-0.244-0.414-0.366c-6.214,0-12.427,0-18.641,0c-0.794,0.293-1.14,0.868-1.138,1.709
						c0.01,3.748,0.004,7.496,0.004,11.243c0,0.556-0.003,0.589-0.55,0.551c-1.497-0.102-2.516,0.986-2.497,2.492
						c0.044,3.476,0.013,6.953,0.014,10.429c0.001,1.58,0.867,2.443,2.45,2.449c0.582,0.002,0.582,0.002,0.582,0.6
						c0,2.219-0.001,4.438,0.001,6.657c0.001,1.192,0.58,1.771,1.768,1.771c8.013,0.001,16.027,0.001,24.04,0
						c1.168,0,1.755-0.583,1.757-1.745c0.002-2.256,0-4.512,0.001-6.768c0-0.512,0.002-0.511,0.52-0.515
						c0.271-0.002,0.541,0.008,0.809-0.058c0.996-0.246,1.69-1.044,1.694-2.069C346.003,438.696,346.005,434.997,345.988,431.299z
						 M317.537,417.162c5.337,0,10.674,0,16.01,0c0.548,0,0.554,0.007,0.554,0.561c0.001,2.243-0.001,4.486,0.001,6.73
						c0.001,0.811,0.249,1.059,1.06,1.059c1.91,0.001,3.821,0,5.731,0.001c0.458,0,0.479,0.021,0.481,0.483
						c0.003,0.887,0.002,1.775,0,2.662c-0.001,0.477-0.024,0.498-0.504,0.499c-3.895,0.001-7.79,0-11.684,0
						c-3.882,0-7.765,0-11.647,0c-0.55,0-0.552-0.001-0.552-0.561c-0.001-3.624-0.001-7.247,0-10.871
						C316.987,417.166,316.991,417.162,317.537,417.162z M340.822,451.579c-3.883,0.001-7.766,0-11.65,0c-3.871,0-7.742,0-11.613,0
						c-0.572,0-0.574-0.002-0.574-0.579c-0.001-1.997-0.001-3.994,0.001-5.991c0-0.464,0.023-0.486,0.478-0.487
						c7.803-0.001,15.607-0.001,23.41,0c0.478,0,0.499,0.02,0.499,0.503c0.002,1.997,0.001,3.994,0,5.991
						C341.375,451.574,341.37,451.579,340.822,451.579z"/>
				</g>
				<g>
					<g>
						<rect x="327.418" y="417.053" style="fill:#FFFFFF;" width="1.757" height="1.054"/>
					</g>
					<g>
						<rect x="325.662" y="418.107" style="fill:#FFFFFF;" width="1.757" height="1.054"/>
					</g>
					<g>
						<rect x="327.418" y="419.161" style="fill:#FFFFFF;" width="1.757" height="1.054"/>
					</g>
					<g>
						<rect x="325.662" y="420.215" style="fill:#FFFFFF;" width="1.757" height="1.054"/>
					</g>
					<g>
						<rect x="327.418" y="421.269" style="fill:#FFFFFF;" width="1.757" height="1.054"/>
					</g>
					<g>
						<rect x="325.662" y="422.323" style="fill:#FFFFFF;" width="1.757" height="1.054"/>
					</g>
					<g>
						<rect x="327.418" y="423.378" style="fill:#FFFFFF;" width="1.757" height="1.054"/>
					</g>
					<g>
						<rect x="325.662" y="424.432" style="fill:#FFFFFF;" width="1.757" height="1.054"/>
					</g>
					<g>
						<rect x="327.418" y="425.486" style="fill:#FFFFFF;" width="1.757" height="1.054"/>
					</g>
					<g>
						<rect x="325.662" y="426.54" style="fill:#FFFFFF;" width="1.757" height="1.054"/>
					</g>
					<g>
						<rect x="327.418" y="427.594" style="fill:#FFFFFF;" width="1.757" height="1.054"/>
					</g>
					<g>
						<rect x="325.662" y="428.648" style="fill:#FFFFFF;" width="1.757" height="1.054"/>
					</g>
				</g>
			</g>
			<g>
				<path style="fill:#FFFFFF;" d="M187.637,431.299c-0.006-1.224-0.959-2.121-2.189-2.14c-0.924-0.014-0.832,0.12-0.834-0.867
					c-0.003-1.097-0.007-2.194,0.003-3.292c0.003-0.379-0.112-0.691-0.362-0.976c-2.342-2.668-4.678-5.342-7.019-8.011
					c-0.12-0.137-0.275-0.244-0.414-0.366c-6.214,0-12.427,0-18.641,0c-0.794,0.293-1.14,0.868-1.138,1.709
					c0.01,3.748,0.004,7.496,0.004,11.243c0,0.556-0.003,0.589-0.55,0.551c-1.497-0.102-2.516,0.986-2.497,2.492
					c0.044,3.476,0.013,6.953,0.014,10.429c0.001,1.58,0.867,2.443,2.45,2.449c0.582,0.002,0.582,0.002,0.582,0.6
					c0,2.219-0.001,4.438,0.001,6.657c0.001,1.192,0.58,1.771,1.768,1.771c8.013,0.001,16.027,0.001,24.04,0
					c1.168,0,1.755-0.583,1.757-1.745c0.002-2.256,0-4.512,0.001-6.768c0-0.512,0.002-0.511,0.52-0.515
					c0.271-0.002,0.541,0.008,0.809-0.058c0.996-0.246,1.69-1.044,1.694-2.069C187.652,438.696,187.655,434.997,187.637,431.299z
					 M159.187,417.162c5.337,0,10.674,0,16.01,0c0.548,0,0.554,0.007,0.554,0.561c0.001,2.243-0.001,4.486,0.001,6.73
					c0.001,0.811,0.249,1.059,1.06,1.059c1.91,0.001,3.821,0,5.731,0.001c0.458,0,0.479,0.021,0.481,0.483
					c0.003,0.887,0.002,1.775,0,2.662c-0.001,0.477-0.024,0.498-0.504,0.499c-3.895,0.001-7.79,0-11.684,0
					c-3.882,0-7.765,0-11.647,0c-0.55,0-0.552-0.001-0.552-0.561c-0.001-3.624-0.001-7.247,0-10.871
					C158.636,417.166,158.64,417.162,159.187,417.162z M182.472,451.579c-3.883,0.001-7.766,0-11.65,0c-3.871,0-7.742,0-11.613,0
					c-0.572,0-0.574-0.002-0.574-0.579c-0.001-1.997-0.001-3.994,0.001-5.991c0-0.464,0.023-0.486,0.478-0.487
					c7.803-0.001,15.607-0.001,23.41,0c0.478,0,0.499,0.02,0.499,0.503c0.002,1.997,0.001,3.994,0,5.991
					C183.024,451.574,183.019,451.579,182.472,451.579z"/>
			</g>
			<g>
				<path style="fill:#FFFFFF;" d="M159.779,440.669v-7.897h2.779c0.375,0,0.726,0.061,1.053,0.182
					c0.327,0.121,0.612,0.292,0.855,0.513c0.242,0.221,0.434,0.483,0.573,0.789c0.14,0.305,0.21,0.642,0.21,1.009
					c0,0.375-0.07,0.715-0.21,1.02c-0.14,0.305-0.331,0.568-0.573,0.789c-0.243,0.221-0.528,0.392-0.855,0.513
					c-0.327,0.121-0.678,0.182-1.053,0.182h-1.29v2.901H159.779z M162.58,436.356c0.39,0,0.684-0.111,0.882-0.331
					c0.199-0.22,0.298-0.474,0.298-0.761c0-0.14-0.024-0.276-0.072-0.408c-0.048-0.132-0.121-0.248-0.221-0.347
					c-0.099-0.099-0.223-0.178-0.37-0.237c-0.147-0.059-0.32-0.089-0.518-0.089h-1.312v2.173H162.58z"/>
				<path style="fill:#FFFFFF;" d="M166.308,432.771h1.731l3.177,5.294h0.088l-0.088-1.522v-3.772h1.478v7.897h-1.566l-3.353-5.592
					h-0.088l0.088,1.522v4.07h-1.467V432.771z"/>
				<path style="fill:#FFFFFF;" d="M177.922,436.334h3.872c0.022,0.089,0.04,0.195,0.055,0.32c0.014,0.125,0.022,0.25,0.022,0.375
					c0,0.507-0.077,0.985-0.231,1.434c-0.154,0.449-0.397,0.849-0.728,1.202c-0.353,0.375-0.776,0.666-1.268,0.871
					c-0.493,0.206-1.055,0.309-1.688,0.309c-0.574,0-1.114-0.103-1.622-0.309c-0.507-0.206-0.948-0.492-1.323-0.86
					c-0.375-0.367-0.673-0.803-0.894-1.307c-0.221-0.504-0.331-1.053-0.331-1.649c0-0.595,0.11-1.145,0.331-1.649
					c0.221-0.504,0.518-0.939,0.894-1.307c0.375-0.367,0.816-0.654,1.323-0.86c0.507-0.206,1.048-0.309,1.622-0.309
					c0.64,0,1.211,0.11,1.715,0.331c0.504,0.221,0.935,0.526,1.296,0.915l-1.025,1.004c-0.258-0.272-0.544-0.48-0.861-0.623
					c-0.316-0.143-0.695-0.215-1.136-0.215c-0.361,0-0.703,0.065-1.026,0.193c-0.324,0.129-0.607,0.311-0.85,0.546
					c-0.242,0.235-0.436,0.52-0.579,0.855c-0.143,0.335-0.215,0.708-0.215,1.119c0,0.412,0.072,0.785,0.215,1.12
					c0.143,0.335,0.338,0.62,0.584,0.855c0.246,0.235,0.531,0.418,0.855,0.546c0.323,0.129,0.669,0.193,1.037,0.193
					c0.419,0,0.773-0.061,1.064-0.182c0.29-0.121,0.538-0.278,0.744-0.469c0.148-0.132,0.275-0.3,0.381-0.502
					c0.106-0.202,0.189-0.428,0.248-0.678h-2.482V436.334z"/>
			</g>
			<g>
				<path style="fill:#FFFFFF;" d="M224.019,431.299c-0.006-1.224-0.959-2.121-2.189-2.14c-0.924-0.014-0.832,0.12-0.834-0.867
					c-0.003-1.097-0.007-2.194,0.003-3.292c0.003-0.379-0.112-0.691-0.362-0.976c-2.342-2.668-4.678-5.342-7.019-8.011
					c-0.12-0.137-0.275-0.244-0.414-0.366c-6.214,0-12.427,0-18.641,0c-0.794,0.293-1.14,0.868-1.138,1.709
					c0.01,3.748,0.004,7.496,0.004,11.243c0,0.556-0.003,0.589-0.55,0.551c-1.497-0.102-2.516,0.986-2.497,2.492
					c0.044,3.476,0.013,6.953,0.014,10.429c0.001,1.58,0.867,2.443,2.45,2.449c0.582,0.002,0.582,0.002,0.582,0.6
					c0,2.219-0.001,4.438,0.001,6.657c0.001,1.192,0.58,1.771,1.768,1.771c8.013,0.001,16.027,0.001,24.04,0
					c1.168,0,1.755-0.583,1.757-1.745c0.002-2.256,0-4.512,0.001-6.768c0-0.512,0.002-0.511,0.52-0.515
					c0.271-0.002,0.541,0.008,0.809-0.058c0.997-0.246,1.69-1.044,1.694-2.069C224.034,438.696,224.036,434.997,224.019,431.299z
					 M195.568,417.162c5.337,0,10.674,0,16.01,0c0.548,0,0.554,0.007,0.554,0.561c0.001,2.243-0.001,4.486,0.001,6.73
					c0.001,0.811,0.249,1.059,1.06,1.059c1.91,0.001,3.821,0,5.731,0.001c0.458,0,0.479,0.021,0.481,0.483
					c0.003,0.887,0.002,1.775,0,2.662c-0.001,0.477-0.024,0.498-0.504,0.499c-3.895,0.001-7.79,0-11.684,0
					c-3.882,0-7.765,0-11.647,0c-0.55,0-0.552-0.001-0.552-0.561c-0.001-3.624-0.001-7.247,0-10.871
					C195.018,417.166,195.022,417.162,195.568,417.162z M218.854,451.579c-3.883,0.001-7.766,0-11.65,0c-3.871,0-7.742,0-11.613,0
					c-0.572,0-0.574-0.002-0.574-0.579c-0.001-1.997-0.001-3.994,0.001-5.991c0-0.464,0.023-0.486,0.478-0.487
					c7.803-0.001,15.607-0.001,23.41,0c0.478,0,0.499,0.02,0.499,0.503c0.002,1.997,0.001,3.994,0,5.991
					C219.406,451.574,219.401,451.579,218.854,451.579z"/>
			</g>
			<g>
				<path style="fill:#FFFFFF;" d="M205.111,432.771h1.699l2.967,7.897h-1.644l-0.651-1.886h-3.044l-0.651,1.886h-1.643
					L205.111,432.771z M206.997,437.415l-0.706-1.974l-0.287-0.96h-0.088l-0.287,0.96l-0.706,1.974H206.997z"/>
				<path style="fill:#FFFFFF;" d="M211.331,434.536c-0.125,0-0.245-0.024-0.359-0.072c-0.114-0.048-0.213-0.114-0.298-0.199
					c-0.084-0.084-0.151-0.182-0.198-0.292c-0.048-0.11-0.072-0.232-0.072-0.364s0.024-0.254,0.072-0.364
					c0.048-0.11,0.114-0.208,0.198-0.292c0.084-0.084,0.184-0.151,0.298-0.198c0.114-0.048,0.233-0.072,0.359-0.072
					c0.257,0,0.478,0.09,0.662,0.27c0.184,0.181,0.276,0.399,0.276,0.656s-0.092,0.476-0.276,0.656
					C211.809,434.446,211.589,434.536,211.331,434.536z M210.615,440.669v-5.404h1.445v5.404H210.615z"/>
			</g>
			<g>
				<path style="fill:#FFFFFF;" d="M261.044,431.299c-0.006-1.224-0.959-2.121-2.189-2.14c-0.924-0.014-0.832,0.12-0.834-0.867
					c-0.003-1.097-0.007-2.194,0.003-3.292c0.003-0.379-0.112-0.691-0.362-0.976c-2.342-2.668-4.678-5.342-7.019-8.011
					c-0.12-0.137-0.275-0.244-0.414-0.366c-6.214,0-12.427,0-18.641,0c-0.794,0.293-1.14,0.868-1.138,1.709
					c0.01,3.748,0.004,7.496,0.004,11.243c0,0.556-0.003,0.589-0.55,0.551c-1.497-0.102-2.516,0.986-2.497,2.492
					c0.044,3.476,0.013,6.953,0.014,10.429c0.001,1.58,0.867,2.443,2.45,2.449c0.582,0.002,0.582,0.002,0.582,0.6
					c0,2.219-0.001,4.438,0.001,6.657c0.001,1.192,0.58,1.771,1.768,1.771c8.013,0.001,16.027,0.001,24.04,0
					c1.168,0,1.755-0.583,1.757-1.745c0.002-2.256,0-4.512,0.001-6.768c0-0.512,0.002-0.511,0.52-0.515
					c0.271-0.002,0.541,0.008,0.809-0.058c0.996-0.246,1.69-1.044,1.694-2.069C261.059,438.696,261.061,434.997,261.044,431.299z
					 M232.593,417.162c5.337,0,10.674,0,16.01,0c0.548,0,0.554,0.007,0.554,0.561c0.001,2.243-0.001,4.486,0.001,6.73
					c0.001,0.811,0.249,1.059,1.06,1.059c1.91,0.001,3.821,0,5.731,0.001c0.458,0,0.479,0.021,0.481,0.483
					c0.003,0.887,0.002,1.775,0,2.662c-0.001,0.477-0.024,0.498-0.504,0.499c-3.895,0.001-7.79,0-11.684,0
					c-3.882,0-7.765,0-11.647,0c-0.55,0-0.552-0.001-0.552-0.561c-0.001-3.624-0.001-7.247,0-10.871
					C232.042,417.166,232.047,417.162,232.593,417.162z M255.878,451.579c-3.883,0.001-7.766,0-11.65,0c-3.871,0-7.742,0-11.613,0
					c-0.572,0-0.574-0.002-0.574-0.579c-0.001-1.997-0.001-3.994,0.001-5.991c0-0.464,0.023-0.486,0.478-0.487
					c7.803-0.001,15.607-0.001,23.41,0c0.478,0,0.499,0.02,0.499,0.503c0.002,1.997,0.001,3.994,0,5.991
					C256.431,451.574,256.426,451.579,255.878,451.579z"/>
			</g>
			<g>
				<path style="fill:#FFFFFF;" d="M236.361,440.845c-0.338,0-0.662-0.048-0.971-0.143c-0.309-0.095-0.592-0.239-0.849-0.43
					c-0.257-0.191-0.481-0.425-0.673-0.7c-0.191-0.276-0.342-0.597-0.452-0.965l1.401-0.551c0.103,0.397,0.283,0.726,0.54,0.987
					c0.257,0.261,0.596,0.392,1.015,0.392c0.154,0,0.303-0.02,0.447-0.061c0.143-0.04,0.272-0.099,0.386-0.176
					s0.204-0.175,0.27-0.292c0.066-0.118,0.099-0.254,0.099-0.408c0-0.147-0.026-0.279-0.077-0.397
					c-0.051-0.117-0.138-0.227-0.259-0.331c-0.121-0.103-0.28-0.202-0.475-0.298c-0.195-0.095-0.435-0.195-0.722-0.298l-0.485-0.176
					c-0.213-0.073-0.429-0.173-0.645-0.298c-0.217-0.125-0.413-0.276-0.59-0.452c-0.177-0.176-0.322-0.384-0.436-0.623
					c-0.114-0.239-0.171-0.509-0.171-0.81c0-0.309,0.06-0.597,0.182-0.866c0.121-0.268,0.294-0.503,0.518-0.706
					c0.224-0.202,0.492-0.36,0.805-0.474s0.66-0.171,1.042-0.171c0.397,0,0.74,0.053,1.031,0.16
					c0.291,0.107,0.537,0.243,0.739,0.408c0.202,0.165,0.366,0.348,0.491,0.546c0.125,0.199,0.217,0.386,0.276,0.563l-1.312,0.551
					c-0.074-0.221-0.208-0.419-0.402-0.596c-0.195-0.176-0.462-0.265-0.8-0.265c-0.324,0-0.592,0.075-0.805,0.226
					c-0.213,0.151-0.32,0.348-0.32,0.59c0,0.235,0.103,0.436,0.309,0.601c0.206,0.165,0.533,0.325,0.982,0.48l0.497,0.165
					c0.316,0.111,0.605,0.237,0.866,0.381c0.261,0.143,0.485,0.314,0.673,0.513c0.187,0.199,0.331,0.425,0.43,0.678
					c0.1,0.254,0.149,0.546,0.149,0.877c0,0.412-0.083,0.767-0.248,1.064c-0.165,0.298-0.377,0.542-0.634,0.734
					c-0.258,0.191-0.548,0.335-0.872,0.43C236.986,440.797,236.67,440.845,236.361,440.845z"/>
				<path style="fill:#FFFFFF;" d="M239.516,432.771h1.61l1.633,4.754l0.287,1.015h0.088l0.309-1.015l1.699-4.754h1.61l-2.879,7.897
					h-1.566L239.516,432.771z"/>
				<path style="fill:#FFFFFF;" d="M251.097,436.334h3.871c0.022,0.089,0.04,0.195,0.055,0.32c0.015,0.125,0.023,0.25,0.023,0.375
					c0,0.507-0.078,0.985-0.232,1.434c-0.154,0.449-0.397,0.849-0.728,1.202c-0.353,0.375-0.775,0.666-1.268,0.871
					c-0.493,0.206-1.055,0.309-1.688,0.309c-0.574,0-1.114-0.103-1.621-0.309c-0.507-0.206-0.949-0.492-1.324-0.86
					c-0.375-0.367-0.673-0.803-0.894-1.307c-0.22-0.504-0.331-1.053-0.331-1.649c0-0.595,0.11-1.145,0.331-1.649
					c0.221-0.504,0.518-0.939,0.894-1.307c0.375-0.367,0.816-0.654,1.324-0.86c0.507-0.206,1.047-0.309,1.621-0.309
					c0.64,0,1.211,0.11,1.715,0.331c0.504,0.221,0.936,0.526,1.296,0.915l-1.026,1.004c-0.257-0.272-0.544-0.48-0.861-0.623
					c-0.316-0.143-0.694-0.215-1.136-0.215c-0.36,0-0.702,0.065-1.026,0.193c-0.323,0.129-0.607,0.311-0.849,0.546
					c-0.243,0.235-0.436,0.52-0.579,0.855c-0.143,0.335-0.215,0.708-0.215,1.119c0,0.412,0.072,0.785,0.215,1.12
					c0.143,0.335,0.338,0.62,0.585,0.855c0.246,0.235,0.531,0.418,0.854,0.546c0.324,0.129,0.669,0.193,1.037,0.193
					c0.419,0,0.774-0.061,1.064-0.182c0.29-0.121,0.539-0.278,0.745-0.469c0.147-0.132,0.274-0.3,0.38-0.502
					c0.107-0.202,0.189-0.428,0.248-0.678h-2.482V436.334z"/>
			</g>
			<g>
				<path style="fill:#FFFFFF;" d="M297.3,431.299c-0.006-1.224-0.959-2.121-2.189-2.14c-0.924-0.014-0.832,0.12-0.834-0.867
					c-0.003-1.097-0.007-2.194,0.003-3.292c0.003-0.379-0.112-0.691-0.362-0.976c-2.342-2.668-4.678-5.342-7.019-8.011
					c-0.12-0.137-0.275-0.244-0.414-0.366c-6.214,0-12.427,0-18.641,0c-0.794,0.293-1.14,0.868-1.138,1.709
					c0.01,3.748,0.004,7.496,0.004,11.243c0,0.556-0.003,0.589-0.55,0.551c-1.497-0.102-2.516,0.986-2.497,2.492
					c0.044,3.476,0.013,6.953,0.014,10.429c0.001,1.58,0.867,2.443,2.45,2.449c0.582,0.002,0.582,0.002,0.582,0.6
					c0,2.219-0.001,4.438,0.001,6.657c0.001,1.192,0.58,1.771,1.768,1.771c8.013,0.001,16.027,0.001,24.04,0
					c1.168,0,1.755-0.583,1.757-1.745c0.002-2.256,0-4.512,0.001-6.768c0-0.512,0.002-0.511,0.52-0.515
					c0.271-0.002,0.541,0.008,0.809-0.058c0.996-0.246,1.69-1.044,1.694-2.069C297.315,438.696,297.318,434.997,297.3,431.299z
					 M268.85,417.162c5.337,0,10.674,0,16.01,0c0.548,0,0.554,0.007,0.554,0.561c0.001,2.243-0.001,4.486,0.001,6.73
					c0.001,0.811,0.249,1.059,1.06,1.059c1.91,0.001,3.821,0,5.731,0.001c0.458,0,0.479,0.021,0.481,0.483
					c0.003,0.887,0.002,1.775,0,2.662c-0.001,0.477-0.024,0.498-0.504,0.499c-3.895,0.001-7.79,0-11.684,0
					c-3.882,0-7.765,0-11.647,0c-0.55,0-0.552-0.001-0.552-0.561c-0.001-3.624-0.001-7.247,0-10.871
					C268.299,417.166,268.303,417.162,268.85,417.162z M292.135,451.579c-3.883,0.001-7.766,0-11.65,0c-3.871,0-7.742,0-11.613,0
					c-0.572,0-0.574-0.002-0.574-0.579c-0.001-1.997-0.001-3.994,0.001-5.991c0-0.464,0.023-0.486,0.478-0.487
					c7.803-0.001,15.607-0.001,23.41,0c0.478,0,0.499,0.02,0.499,0.503c0.001,1.997,0.001,3.994,0,5.991
					C292.687,451.574,292.682,451.579,292.135,451.579z"/>
			</g>
			<g>
				<path style="fill:#FFFFFF;" d="M272.966,434.183v1.831h3.165v1.412h-3.165v1.831h3.518v1.412h-5.007v-7.897h5.007v1.412H272.966
					z"/>
				<path style="fill:#FFFFFF;" d="M277.852,440.669v-7.897h2.779c0.375,0,0.726,0.061,1.053,0.182
					c0.327,0.121,0.612,0.292,0.855,0.513c0.243,0.221,0.434,0.483,0.574,0.789c0.14,0.305,0.209,0.642,0.209,1.009
					c0,0.375-0.07,0.715-0.209,1.02c-0.14,0.305-0.331,0.568-0.574,0.789c-0.243,0.221-0.528,0.392-0.855,0.513
					c-0.327,0.121-0.678,0.182-1.053,0.182h-1.29v2.901H277.852z M280.653,436.356c0.389,0,0.684-0.111,0.882-0.331
					c0.199-0.22,0.298-0.474,0.298-0.761c0-0.14-0.024-0.276-0.072-0.408c-0.048-0.132-0.121-0.248-0.221-0.347
					c-0.099-0.099-0.222-0.178-0.37-0.237c-0.147-0.059-0.32-0.089-0.518-0.089h-1.312v2.173H280.653z"/>
				<path style="fill:#FFFFFF;" d="M286.797,440.845c-0.338,0-0.662-0.048-0.971-0.143c-0.309-0.095-0.592-0.239-0.849-0.43
					c-0.257-0.191-0.482-0.425-0.673-0.7c-0.191-0.276-0.342-0.597-0.452-0.965l1.401-0.551c0.103,0.397,0.283,0.726,0.541,0.987
					c0.257,0.261,0.595,0.392,1.015,0.392c0.154,0,0.303-0.02,0.447-0.061c0.143-0.04,0.272-0.099,0.386-0.176
					c0.114-0.077,0.204-0.175,0.27-0.292c0.066-0.118,0.1-0.254,0.1-0.408c0-0.147-0.026-0.279-0.077-0.397
					c-0.051-0.117-0.138-0.227-0.259-0.331c-0.121-0.103-0.279-0.202-0.474-0.298c-0.195-0.095-0.436-0.195-0.723-0.298
					l-0.485-0.176c-0.213-0.073-0.428-0.173-0.645-0.298c-0.217-0.125-0.414-0.276-0.59-0.452c-0.176-0.176-0.322-0.384-0.436-0.623
					c-0.114-0.239-0.171-0.509-0.171-0.81c0-0.309,0.061-0.597,0.182-0.866c0.121-0.268,0.294-0.503,0.518-0.706
					c0.224-0.202,0.493-0.36,0.805-0.474c0.312-0.114,0.66-0.171,1.042-0.171c0.397,0,0.741,0.053,1.031,0.16
					c0.29,0.107,0.537,0.243,0.739,0.408c0.202,0.165,0.365,0.348,0.491,0.546c0.125,0.199,0.217,0.386,0.276,0.563l-1.312,0.551
					c-0.074-0.221-0.208-0.419-0.403-0.596c-0.195-0.176-0.462-0.265-0.799-0.265c-0.324,0-0.592,0.075-0.805,0.226
					c-0.213,0.151-0.32,0.348-0.32,0.59c0,0.235,0.103,0.436,0.309,0.601c0.206,0.165,0.533,0.325,0.982,0.48l0.496,0.165
					c0.316,0.111,0.605,0.237,0.866,0.381c0.261,0.143,0.485,0.314,0.673,0.513c0.187,0.199,0.331,0.425,0.43,0.678
					c0.099,0.254,0.149,0.546,0.149,0.877c0,0.412-0.083,0.767-0.248,1.064c-0.165,0.298-0.377,0.542-0.634,0.734
					c-0.258,0.191-0.548,0.335-0.872,0.43C287.422,440.797,287.105,440.845,286.797,440.845z"/>
			</g>
			<g>
				<path style="fill:#FFFFFF;" d="M321.394,439.168l4.004-4.985h-3.827v-1.412h5.559v1.5l-3.96,4.985h4.004v1.412h-5.779V439.168z"
					/>
				<path style="fill:#FFFFFF;" d="M328.409,432.771h1.489v7.897h-1.489V432.771z"/>
				<path style="fill:#FFFFFF;" d="M331.486,440.669v-7.897h2.779c0.375,0,0.726,0.061,1.053,0.182
					c0.327,0.121,0.612,0.292,0.855,0.513s0.434,0.483,0.574,0.789c0.14,0.305,0.209,0.642,0.209,1.009
					c0,0.375-0.07,0.715-0.209,1.02c-0.14,0.305-0.331,0.568-0.574,0.789c-0.243,0.221-0.528,0.392-0.855,0.513
					c-0.327,0.121-0.678,0.182-1.053,0.182h-1.29v2.901H331.486z M334.288,436.356c0.389,0,0.684-0.111,0.882-0.331
					c0.199-0.22,0.298-0.474,0.298-0.761c0-0.14-0.024-0.276-0.072-0.408c-0.048-0.132-0.121-0.248-0.221-0.347
					c-0.099-0.099-0.222-0.178-0.37-0.237c-0.147-0.059-0.32-0.089-0.518-0.089h-1.312v2.173H334.288z"/>
			</g>
		</g>
		<g style="opacity:0.61;">
			<path style="fill:#FFFFFF;" d="M300.133,433.27h9.067v2.242h-9.067V433.27z M300.133,437.136h9.067v2.243h-9.067V437.136z"/>
		</g>
	</g>
	<g style="opacity:0.61;">
		<path style="fill:#FFFFFF;" d="M156.756,478.878h1.607c1.263,0,2.114,0.812,2.114,1.974c0,1.161-0.851,1.973-2.114,1.973h-1.607
			V478.878z M158.34,482.464c1.049,0,1.725-0.665,1.725-1.612c0-0.947-0.677-1.613-1.725-1.613h-1.167v3.225H158.34z"/>
		<path style="fill:#FFFFFF;" d="M165.139,480.851c0-1.15,0.879-2.007,2.075-2.007c1.184,0,2.069,0.851,2.069,2.007
			c0,1.156-0.885,2.007-2.069,2.007C166.019,482.858,165.139,482.002,165.139,480.851z M168.866,480.851
			c0-0.942-0.705-1.635-1.652-1.635c-0.953,0-1.663,0.693-1.663,1.635c0,0.941,0.71,1.635,1.663,1.635
			C168.162,482.486,168.866,481.793,168.866,480.851z"/>
		<path style="fill:#FFFFFF;" d="M179.596,478.878l-1.331,3.947h-0.44l-1.156-3.366l-1.161,3.366h-0.434l-1.331-3.947h0.429
			l1.139,3.394l1.178-3.394h0.389l1.161,3.411l1.156-3.411H179.596z"/>
		<path style="fill:#FFFFFF;" d="M187.731,478.878v3.947h-0.344l-2.537-3.202v3.202h-0.417v-3.947h0.344l2.543,3.203v-3.203H187.731
			z"/>
		<path style="fill:#FFFFFF;" d="M193.093,478.878h0.417v3.586h2.21v0.361h-2.627V478.878z"/>
		<path style="fill:#FFFFFF;" d="M200.061,480.851c0-1.15,0.879-2.007,2.075-2.007c1.184,0,2.069,0.851,2.069,2.007
			c0,1.156-0.885,2.007-2.069,2.007C200.941,482.858,200.061,482.002,200.061,480.851z M203.788,480.851
			c0-0.942-0.705-1.635-1.652-1.635c-0.953,0-1.663,0.693-1.663,1.635c0,0.941,0.71,1.635,1.663,1.635
			C203.083,482.486,203.788,481.793,203.788,480.851z"/>
		<path style="fill:#FFFFFF;" d="M211.636,481.77h-2.199l-0.474,1.054h-0.434l1.804-3.947h0.412l1.804,3.947h-0.44L211.636,481.77z
			 M211.484,481.432l-0.947-2.12l-0.947,2.12H211.484z"/>
		<path style="fill:#FFFFFF;" d="M217.28,478.878h1.607c1.263,0,2.114,0.812,2.114,1.974c0,1.161-0.851,1.973-2.114,1.973h-1.607
			V478.878z M218.864,482.464c1.049,0,1.725-0.665,1.725-1.612c0-0.947-0.677-1.613-1.725-1.613h-1.167v3.225H218.864z"/>
		<path style="fill:#FFFFFF;" d="M234.041,481.77h-2.199l-0.474,1.054h-0.434l1.804-3.947h0.412l1.804,3.947h-0.44L234.041,481.77z
			 M233.889,481.432l-0.947-2.12l-0.947,2.12H233.889z"/>
		<path style="fill:#FFFFFF;" d="M239.685,478.878h0.417v3.586h2.21v0.361h-2.627V478.878z"/>
		<path style="fill:#FFFFFF;" d="M247.082,478.878h0.417v3.586h2.21v0.361h-2.627V478.878z"/>
		<path style="fill:#FFFFFF;" d="M260.449,479.239v1.551h2.041v0.361h-2.041v1.675h-0.417v-3.947h2.706v0.361H260.449z"/>
		<path style="fill:#FFFFFF;" d="M267.678,478.878h0.417v3.947h-0.417V478.878z"/>
		<path style="fill:#FFFFFF;" d="M273.456,478.878h0.417v3.586h2.21v0.361h-2.627V478.878z"/>
		<path style="fill:#FFFFFF;" d="M283.644,482.464v0.361h-2.791v-3.947h2.706v0.361h-2.289v1.404h2.041v0.355h-2.041v1.466H283.644z
			"/>
		<path style="fill:#FFFFFF;" d="M294.672,479.239v1.551h2.041v0.361h-2.041v1.675h-0.417v-3.947h2.706v0.361H294.672z"/>
		<path style="fill:#FFFFFF;" d="M301.5,480.851c0-1.15,0.879-2.007,2.075-2.007c1.184,0,2.069,0.851,2.069,2.007
			c0,1.156-0.885,2.007-2.069,2.007C302.379,482.858,301.5,482.002,301.5,480.851z M305.226,480.851
			c0-0.942-0.705-1.635-1.652-1.635c-0.953,0-1.663,0.693-1.663,1.635c0,0.941,0.71,1.635,1.663,1.635
			C304.522,482.486,305.226,481.793,305.226,480.851z"/>
		<path style="fill:#FFFFFF;" d="M313.351,482.825l-0.902-1.269c-0.102,0.011-0.203,0.017-0.316,0.017h-1.06v1.252h-0.417v-3.947
			h1.477c1.004,0,1.613,0.507,1.613,1.353c0,0.62-0.327,1.054-0.902,1.24l0.964,1.353H313.351z M313.328,480.231
			c0-0.632-0.417-0.992-1.207-0.992h-1.048v1.979h1.048C312.911,481.218,313.328,480.851,313.328,480.231z"/>
		<path style="fill:#FFFFFF;" d="M322.907,478.878v3.947h-0.4v-3.158l-1.551,2.656h-0.197l-1.551-2.639v3.14h-0.4v-3.947h0.344
			l1.714,2.926l1.697-2.926H322.907z"/>
		<path style="fill:#FFFFFF;" d="M330.744,481.77h-2.199l-0.473,1.054h-0.434l1.804-3.947h0.411l1.804,3.947h-0.44L330.744,481.77z
			 M330.592,481.432l-0.947-2.12l-0.947,2.12H330.592z"/>
		<path style="fill:#FFFFFF;" d="M336.957,479.239h-1.387v-0.361h3.192v0.361h-1.387v3.586h-0.417V479.239z"/>
		<path style="fill:#FFFFFF;" d="M343.063,482.346l0.164-0.321c0.282,0.276,0.784,0.479,1.302,0.479c0.739,0,1.06-0.31,1.06-0.699
			c0-1.083-2.43-0.417-2.43-1.877c0-0.581,0.451-1.083,1.455-1.083c0.446,0,0.908,0.13,1.224,0.35l-0.141,0.333
			c-0.338-0.22-0.733-0.327-1.083-0.327c-0.722,0-1.043,0.321-1.043,0.716c0,1.083,2.43,0.429,2.43,1.866
			c0,0.581-0.462,1.077-1.472,1.077C343.937,482.858,343.356,482.65,343.063,482.346z"/>
	</g>
</g>
<g>
</g>
<g>
	<g>
		<path d="M250.45,123.669c-102.574,0-185.708,83.123-185.708,185.668c0,33.651,8.959,65.205,24.583,92.419l17.038-18.076
			l17.003-21.597l19.273-21.557l39.708-45.359l4.544-5.686l5.681-1.093l3.402-2.289l19.273-18.165l7.936-6.793l23.836-19.293
			l4.519-2.255l5.686,1.128l18.165,18.165l9.063,2.255l13.627,11.332l18.145,17.009l11.332,4.538l14.754,10.225l12.475,14.734
			l17.023,23.832l13.607,14.734l10.21,14.764l7.935,7.941l7.436,9.493l4.831,7.614c15.891-25.582,20.306-58.174,20.306-88.018
			C436.133,206.792,352.999,123.669,250.45,123.669"/>
	</g>
	<g>
		<path style="fill:#FFFFFF;" d="M136.508,247.696c-6.956,2.7-17.34,3.308-24.064-1.216c-2.808-1.894-4.648-6.136-5.35-9.172
			c-0.465-3.056,0-5.617,1.631-7.703c1.394-2.116,4.322-2.255,6.418-1.592c1.414,0.949,2.344,2.358,2.106,4.217
			c-0.692,2.789-3.629,4.366-3.377,7.422c0.213,2.788,3.704,4.45,6.042,5.112c5.612,1.641,10.764,1.266,15.451-2.255
			c18.195-14.927,14.531-41.641,36.647-52.291l2.309-0.287c-6.294,6.734-7.332,14.516-10.388,22.665
			c0.069,0.628,2.181-0.138,3.575-0.138c7.92-3.041,12.944-10.314,12.731-18.719c-0.252-5.617-4.4-10.531-9.765-12.41
			c-14.017-4.88-29.265-2.373-39.53,8.618c-5.789,7.367-8.633,14.145-6.289,23.243c0.692,2.324,2.769,4.43,5.073,5.132
			c2.808,0.712,5.814,1.443,8.385-0.158c4.722-1.384-4.845-9.963,6.131-10.244c1.414,0.227,2.541,2.052,2.773,3.461
			c0.465,2.808-1.627,6.586-3.506,8.46c-4.895,3.485-11.797,4.919-17.878,3.061c-3.738-1.187-7.684-3.758-10.027-7.515
			c-3.026-5.127-1.627-14.279,1.414-19.164c8.722-13.621,24.296-20.598,39.866-21.577c12.138-0.232,24.029,2.591,31.055,12.855
			c2.789,4.43,2.502,13.142-0.534,17.572c-5.849,7.96-15.664,12.054-25.226,12.282C159.91,231.029,149.829,243.706,136.508,247.696"
			/>
	</g>
	<g>
		<path style="fill:#FFFFFF;" d="M294.464,225.778c-0.623,0.574-1.641,1.019-2.467,0.356c-1.429-1.809,0.213-4.094,0.43-5.933
			c2.255-5.132,3.095-8.534,8.01-11.802c0.821-0.252,2.057,0.178,2.057,1.196C301.258,216.394,299.008,220.201,294.464,225.778
			 M229.456,224.364c-1.483,0.307-1.77-1.162-1.503-2.185c2.507-5.785,7.654-14.319,13.681-13.048
			C238.109,214.638,236.269,221.145,229.456,224.364z M187.321,224.31c-1.038,0.39-2.077-0.43-2.077-1.469
			c1.449-6.576,8.316-15.658,14.339-14.442C196.488,214.159,194.095,220.784,187.321,224.31z M381.731,221.536h-4.079
			c-0.015,0-0.213,0.237-0.213,0.237c-0.411,0.588-0.821,1.142-1.217,1.711c-1.913,2.719-3.738,5.281-6.937,4.845
			c-0.944-0.356-0.964-1.246-0.574-3.213c0.055-0.267,0.094-0.519,0.143-0.791l6.937-15.357c0.895,0.074,1.735,0.163,2.309,0.218
			c1.196,0.143,2.126,0.267,3.001,0.039l0.198-0.059l2.037-0.574l-1.627-0.554c0.45-0.93,0.485-2.195,0.465-2.521v-0.514
			c0-0.069-0.519-0.158-0.519-0.158h-0.055c-0.677-0.109-1.375-0.074-2.017-0.074c-0.663,0.015-1.236-0.094-1.77-0.213l3.862-8.761
			l0.034-0.089l0.322-0.811l-0.856-0.089h-0.089c-1.449-0.138-2.685-0.118-3.881-0.049c-0.519,0.02-1.182,0.049-1.805,0.049h-0.395
			c-0.034,0-0.213,0.346-0.213,0.346v0.03c0,0-4.203,7.995-4.989,9.463c-0.306,0.03-0.786,0-1.236-0.059
			c-1.305-0.104-2.823-0.302-3.644,0.682c-0.539,0.574-0.663,1.414-0.411,2.591l0.104,0.504c0.02,0.034,0.539,0.034,0.539,0.034
			h0.054c0.821,0,1.607,0.104,2.571,0.252c0,0,0.144,0,0.164,0.03c-0.574,1.147-1.128,2.294-1.681,3.56
			c-2.269,5.043-4.415,9.799-10.067,12.459c-0.035,0-0.089-0.029-0.124-0.049c-0.109-0.129-0.143-0.287-0.178-0.504l5.918-12.707
			c0.534-1.256,1.983-4.618-0.45-6.477l-0.069-0.03c0-0.02-0.089-0.02-0.089-0.02c-4.079-1.735-7.817,0.465-11.12,3.234
			c0.336-0.751,0.658-1.518,0.801-2.255v-0.05l0.163-0.771h-0.86c-0.534,0-1.107-0.02-1.572-0.05
			c-1.627-0.02-3.184-0.059-4.682,0.302l-0.307,0.089l-0.143,0.287c0,0.015-0.356,0.821-0.356,0.821
			c-1.557,3.575-3.021,6.937-5.058,9.963c-2.166,3.253-4.742,5.681-7.995,7.664c0.089-0.267,0.163-0.495,0.217-0.663
			c0.089-0.208,0.158-0.356,0.213-0.495c1.093-3.313,2.522-6.21,3.916-9.028c1.27-2.581,2.482-5.043,3.485-7.797l0.02-0.074
			l0.282-0.732l-0.786-0.124h-0.069l-0.302-0.054c-1.899-0.218-4.509-0.554-6.403-0.109l-0.287,0.109
			c-0.034,0-0.143,0.232-0.143,0.232c-1.271,2.16-2.215,4.415-3.11,6.601c-2.037,4.964-4.024,9.612-9.478,12.193
			c-0.015-0.148-0.035-0.287-0.035-0.435v-0.118l7.689-17.562l0.034-0.089l0.321-0.781l-0.821-0.148h-0.069
			c-1.557-0.227-4.4-0.485-6.279,0l-0.213,0.109c-0.055,0-0.163,0.197-0.163,0.197c-2.517,3.896-5.162,5.824-7.936,5.914
			c-0.035-0.302-0.089-0.603-0.109-0.89c-0.282-2.057-0.534-4.203-2.645-5.666l-0.034-0.039h-0.02
			c-4.45-2.413-9.508-1.34-15.5,3.313c-3.001,2.838-4.129,5.607-5.202,8.257c-1.182,2.917-2.289,5.617-5.884,7.882
			c-0.213,0.178-0.84,0.45-1.285,0.267c1.038-3.323,2.358-6.091,3.807-8.989c0.84-1.661,1.681-3.411,2.541-5.33
			c0.089-0.316,0.213-0.588,0.322-0.856c0.479-1.038,1.053-2.269-0.322-3.916l-0.054-0.055l-0.074-0.049
			c-4.291-2.848-8.297-0.198-11.585,2.195c-0.213-0.895-0.534-1.899-1.75-2.68l-0.054-0.059l-0.069-0.03
			c-3.955-1.755-7.12,0.287-10.155,2.521c0.049-0.129,0.015-0.178,0.069-0.287c0.178-0.45,0.356-0.915,0.485-1.414l0.015-0.089
			l0.163-0.751h-6.636c-0.034,0-0.213,0.306-0.213,0.306l-0.02,0.03c0,0-6.848,12.391-6.971,12.628
			c-1.053,0.93-1.844,1.889-2.576,2.819c-1.196,1.612-2.284,2.937-4.361,3.599c-0.089-0.039-0.178-0.039-0.198-0.074
			c0-0.055,0-0.144,0-0.213c0-0.069,0-0.178,0-0.287c0.949-2.146,2.022-4.326,3.041-6.438c1.844-3.664,3.683-7.436,4.9-11.48
			l0.158-0.554c0-0.05-0.534-0.287-0.534-0.287h-0.055c-1.844-0.821-4.128-1.157-6.615-0.91c-2.2,0.197-4.435,0.86-6.275,1.81
			c-0.02,0-0.054,0.029-0.054,0.029h-0.015c-1.522,0.648-2.937,1.666-4.242,2.65c-1.552,1.162-3.199,2.235-4.949,2.66
			c-0.183-0.821,0.089-1.641,0.786-2.789c0.732-1.157,1.538-2.482,0.984-3.985l-0.124-0.336c-0.02-0.059-0.376-0.109-0.376-0.109
			c-3.041-0.574-5.365,1.538-7.441,3.411c-0.282,0.252-0.519,0.45-0.786,0.663c0-0.02,0-0.02,0.02-0.05
			c0.395-0.791,0.821-1.701,0.821-2.65v-0.732l-0.663,0.04h-0.069l-5.953,0.104h-0.376c-0.04,0-0.218,0.301-0.218,0.301
			c-1.068,1.879-1.948,3.867-2.789,5.815c-1.196,2.68-2.413,5.469-4.094,7.812c-1.77,2.482-3.93,4.183-6.506,5.311
			c-0.307-0.144-0.445-0.519-0.465-1.394l7.99-16.722l0.218-0.494c0.034-0.059-0.43-0.341-0.43-0.341l-0.054-0.074
			c-1.325-0.801-3.095-1.375-5.058-1.518c-1.824-0.144-3.738,0.034-5.33,0.539c-8.865,2.626-16.751,10.492-19.164,19.184
			c-0.737,2.195-0.39,4.321,0.945,5.804c0.039,0.06,0.059,0.06,0.089,0.148c0.039,0,0.074,0.05,0.128,0.109
			c0.124,0.178,0.287,0.336,0.5,0.48l0.054,0.054l0.055,0.034c4.845,2.072,8.667-0.84,12.029-3.451c0,0,0.089-0.055,0.129-0.089
			c0,0.124,0.035,0.178,0.035,0.287c0,1.033,0,2.2,0.93,3.11l0.124,0.109l0.163,0.069c4.237,1.612,7.402,0.158,10.333-1.839
			c-0.124,0.356-0.232,0.732-0.302,1.325v0.089l-0.089,0.692h0.766l6.255,0.237l0.395,0.015c0.069,0,0.247-0.361,0.247-0.361
			l0.02-0.069c0.895-1.928,1.592-3.827,2.255-5.646c1.503-4.133,3.02-8.029,6.472-11.154l0.751,1.839l0.055,0.089l0.034,0.05
			c1.231,1.434,2.912,1.038,4.148,0.737c0.035-0.034,0.05,0,0.069-0.034l-1.196,1.75c-1.968,3.471-4.954,8.653-1.34,12.786
			l0.069,0.089l0.109,0.049c1.681,0.84,3.93,0.702,6.883-0.406h0.034l0.02-0.02h0.034l0.074-0.059l-0.039,0.02
			c0.895-0.465,1.77-1.142,2.63-1.82c0.643-0.485,1.34-0.989,2.017-1.414c0.074,1.354,0.504,2.591,1.503,3.574l0.129,0.124
			c0.015,0.02,0.178,0.059,0.178,0.059c3.649,0.979,6.541-0.485,9.117-2.185c-0.158,0.43-0.287,0.93-0.287,1.523v0.623
			c0,0.069,0.643,0.069,0.643,0.069h6.669c0.035,0,0.198-0.356,0.198-0.356l0.035-0.02c0,0,5.933-12.331,6.076-12.598
			c0.485-0.613,0.949-1.256,1.399-1.899c1.409-2.017,2.714-3.896,5.004-4.252c0.034,0.118,0.034,0.356,0.02,0.494
			c-0.02,0.059-0.02,0.148-0.02,0.237c-1.375,3.199-2.7,5.914-3.985,8.563c-1.325,2.66-2.665,5.419-4.079,8.687l-0.015,0.124
			l-0.416,0.88h1.093c0.573,0,1.251,0.049,1.948,0.049c1.859,0.109,3.704,0.218,5.113-0.178l0.272-0.05
			c0.035,0,0.158-0.257,0.158-0.257c1.34-2.442,2.215-4.519,3.056-6.522c1.345-3.219,2.596-6.254,5.651-9.978l0.074-0.104
			c0.015,0,0.035-0.089,0.035-0.089c0.267-0.88,1.735-1.829,2.304-1.651c0.198,0.059,0.213,0.613,0.055,1.345
			c-2.27,4.4-2.447,4.954-3.416,7.792l-0.93,2.581c-0.015,0.05-0.015,0.05-0.158,0.623c-0.519,1.967-1.503,5.666,1.217,6.754
			c4.682,1.878,8.939-0.643,11.96-3.392c0.964,2.611,3.362,4.608,5.973,4.86h0.104c0,0,0.074,0,0.109-0.015
			c0.341,0,0.677-0.089,1.038-0.148c0.158-0.015,0.302-0.05,0.465-0.089h0.144c1.018-0.158,2.052-0.391,3.056-0.751h0.02
			c0.049-0.03,0.049-0.03,0.049-0.03c0.915-0.307,1.825-0.737,2.7-1.216h0.02l0.035-0.04c0.02,0,0.02,0,0.02,0s0.015,0,0.034-0.02
			l-0.034,0.02c1.538-0.89,2.734-1.731,3.792-2.719c2.68-2.482,4.95-5.982,6.63-9.987c0.93-0.168,1.879-0.416,2.68-0.682
			c0.322-0.109,0.608-0.158,0.93-0.247l-3.684,7.901c-0.642,1.285-1.068,3.214-0.603,4.682c0.267,0.737,0.732,1.291,1.394,1.627
			c4.915,2.344,8.633,0.039,11.926-2.393c0.034,0.766,0.158,1.607,1.251,2.551c2.018,1.503,4.326,0.574,6.166-0.119l0.608-0.237
			v-0.02h0.074v-0.03c0.588-0.257,1.088-0.504,1.552-0.702c0.697-0.287,1.394-0.662,2.146-1.088l-0.771,1.533l-0.015,0.109
			l-0.485,0.93h1.058l0.104-0.03c2.898-0.02,4.257-0.02,6.848,0l0.41,0.03c0.04,0,0.198-0.336,0.198-0.336l0.04-0.039
			c1.068-2.057,1.859-3.965,2.645-5.775c1.859-4.361,3.446-8.114,8.257-11.837l0.144-0.089c0.321-0.193,0.895-0.584,1.182-0.534
			c-0.875,2.097-1.592,3.777-2.2,5.113c-0.964,2.215-1.79,4.133-2.967,7.189v0.069c0-0.015-0.039,0.04-0.039,0.04
			c-0.499,1.75-1.251,4.4,0.772,5.864l0.054,0.034l0.089,0.015c4.682,1.878,8.85-0.534,12.069-2.64l0.247,1.513
			c0.574,2.848,5.206,4.351,7.51,4.351c3.095,0,5.577-0.88,7.812-2.759c2.057-1.696,3.97-4.272,6.17-8.386l0.069-0.089l0.499-0.93
			H381.731z"/>
	</g>
	<g>
		<polygon points="121.276,388.9 135.258,367.215 139.599,361.172 140.316,359.007 143.446,355.14 148.523,348.901 152.385,344.777 
			156.246,341.178 158.659,338.765 161.057,336.333 162.985,334.404 164.434,333.939 165.166,334.404 164.667,335.868 
			161.556,340.663 157.927,346.478 155.045,350.572 148.776,359.511 145.393,362.863 142.264,364.821 139.599,367.432 
			136.474,371.071 130.927,377.33 128.534,380.248 125.137,384.322 		"/>
	</g>
	<g>
		<path d="M121.338,388.956l-0.131-0.099l13.982-21.688l4.344-6.044l0.719-2.171l3.13-3.866l5.078-6.24l3.866-4.128l3.864-3.602
			l2.41-2.413l2.398-2.43l1.963-1.951l1.486-0.477l0.032,0.022l0.786,0.499l-0.02,0.062l-0.499,1.464l-3.12,4.813l-3.629,5.814
			l-2.885,4.096l-6.269,8.939l-3.392,3.365l-3.142,1.968l-2.653,2.601l-3.12,3.634l-5.548,6.262l-2.391,2.917l-3.397,4.074
			L121.338,388.956z M140.391,359.046l-0.712,2.151l-4.353,6.064l-13.283,20.608l3.033-3.599l3.394-4.074l2.393-2.917l5.55-6.262
			l3.125-3.639l2.67-2.616l3.142-1.968l3.37-3.342l9.142-13.021l3.627-5.812l3.11-4.796l0.47-1.384l-0.645-0.41l-1.392,0.447
			l-1.913,1.916l-2.398,2.43l-2.413,2.415l-3.864,3.599l-3.859,4.121L140.391,359.046z"/>
	</g>
	<g>
		<polygon points="164.667,397.108 164.667,395.407 165.902,392.51 167.583,389.879 169.265,386.269 170.941,383.372 
			172.142,380.465 172.622,377.33 172.409,374.69 173.606,371.536 175.287,368.173 176.968,364.08 177.952,360.935 179.361,358.77 
			180.597,356.376 180.83,354.666 179.865,353.459 179.361,352.035 181.082,348.901 182.511,346.013 184.923,342.612 
			186.857,339.487 188.073,337.806 191.198,332.743 193.847,327.67 197.224,325.267 200.117,322.142 202.767,319.245 
			206.129,314.904 206.629,313.687 209.521,310.81 209.041,313.203 208.077,317.317 206.129,321.41 205.427,324.535 
			204.715,326.701 203.998,329.114 203.998,331.764 203.499,332.743 203.499,333.712 203.998,335.136 203.998,340.446 
			202.55,344.075 200.601,347.21 198.209,351.304 196.023,354.429 194.342,357.81 192.167,360.935 189.269,363.348 188.073,364.08 
			186.14,366.71 183.494,370.576 181.082,373.701 178.669,375.907 177.453,377.835 176.736,379.724 176.236,381.909 
			175.054,384.569 173.373,386.507 171.193,388.663 169.265,390.621 167.796,392.757 166.847,393.973 165.902,395.407 		"/>
	</g>
	<g>
		<path d="M164.586,397.362l0.005-1.988l1.236-2.897l1.688-2.64l1.676-3.599l1.679-2.902l1.197-2.897l0.475-3.12l-0.215-2.635
			l1.204-3.177l1.684-3.37l1.679-4.089l0.981-3.137l1.419-2.185l1.226-2.373l0.225-1.661l-0.954-1.204l-0.517-1.459l0.017-0.032
			l1.721-3.135l1.426-2.885l2.42-3.412l1.931-3.122l1.219-1.686l3.122-5.056l2.672-5.098l3.377-2.403l2.88-3.115l2.648-2.897
			l3.36-4.334l0.504-1.226l3.085-3.068l-0.052,0.267l-0.48,2.393l-0.967,4.116l-1.953,4.109l-0.695,3.107l-0.714,2.173l-0.717,2.41
			l0.002,2.648l-0.007,0.017l-0.492,0.962v0.934l0.499,1.439l-0.005,5.34l-1.449,3.629l-1.955,3.15l-2.391,4.091l-2.19,3.13
			l-1.674,3.372l-2.183,3.135l-2.912,2.43l-1.192,0.729l-1.923,2.618l-2.645,3.864l-2.415,3.13l-2.423,2.215l-1.201,1.913
			l-0.71,1.874l-0.497,2.176l-1.187,2.675l-1.693,1.958l-2.185,2.161l-1.926,1.958l-1.461,2.121l-0.952,1.221l-0.939,1.429
			L164.586,397.362z M164.749,395.423v1.434l1.088-1.498l0.942-1.429l0.954-1.221l1.466-2.131l1.936-1.973l2.183-2.156l1.676-1.933
			l1.169-2.64l0.494-2.171l0.719-1.899l1.224-1.943l2.428-2.22l2.403-3.117l2.64-3.864l1.96-2.653l1.197-0.732l2.887-2.408
			l2.161-3.108l1.674-3.372l2.193-3.135l2.388-4.089l1.951-3.137l1.436-3.599v-5.28l-0.499-1.439l0.007-1.006l0.492-0.962v-2.63
			l0.719-2.435l0.712-2.168l0.7-3.117l1.955-4.111l0.959-4.099l0.425-2.124l-2.69,2.675l-0.492,1.201l-3.374,4.358l-2.653,2.902
			l-2.895,3.127l-3.372,2.403l-2.64,5.053l-3.13,5.07l-1.219,1.686l-1.931,3.12l-2.415,3.404l-1.421,2.878l-1.706,3.105l0.489,1.377
			l0.977,1.221l-0.245,1.773l-1.236,2.393l-1.414,2.173l-0.974,3.125l-1.684,4.101l-1.684,3.367l-1.187,3.13l0.21,2.625l-0.48,3.154
			l-1.206,2.922l-1.681,2.907l-1.679,3.604l-1.686,2.64L164.749,395.423z"/>
	</g>
	<g>
		<polygon points="262.821,273.673 268.343,291.265 268.843,293.425 269.307,294.642 269.812,297.292 268.111,300.437 
			266.895,302.85 268.111,306.944 270.524,315.368 272.689,322.607 274.153,329.114 276.551,334.908 280.645,340.218 
			283.542,342.365 286.672,343.828 288.852,345.736 291.013,349.385 293.426,354.429 295.591,358.542 298.237,364.08 
			300.902,367.946 303.547,373.009 304.996,377.103 307.176,380.94 308.837,385.291 311.023,390.116 312.234,393.014 
			313.915,397.108 315.616,400.964 317.065,403.614 317.776,405.76 318.746,407.471 319.942,409.409 320.906,410.606 
			322.123,412.534 322.839,411.07 323.087,409.172 322.839,407.471 323.087,405.76 322.839,403.841 322.123,402.912 
			321.391,401.696 320.674,399.768 319.69,397.839 318.746,395.407 318.261,393.014 318.261,391.066 317.544,389.879 
			317.776,388.663 318.009,386.972 319.21,386.269 319.21,384.322 318.493,382.126 317.544,379.516 316.328,377.33 314.4,375.165 
			312.699,373.009 311.023,369.607 309.821,366.245 308.392,363.605 307.388,361.667 305.96,357.345 304.496,352.965 
			303.082,349.83 302.35,348.406 302.098,346.478 303.314,345.044 304.263,343.828 304.263,341.919 303.314,339.002 302.35,336.837 
			300.902,334.671 299.952,332.743 298.953,330.31 298.004,328.629 296.556,325.969 295.339,324.041 293.91,321.173 
			291.982,317.801 290.533,315.151 287.636,311.037 285.223,308.125 284.506,306.944 282.578,304.031 280.897,301.168 
			278.964,298.509 277.282,295.127 276.052,293.678 273.886,289.569 271.241,285.955 269.559,283.31 267.864,280.432 
			265.951,277.268 		"/>
	</g>
	<g>
		<path d="M322.133,412.704l-0.079-0.124l-1.216-1.928l-0.959-1.192l-1.201-1.943l-0.972-1.716l-0.719-2.161l-1.441-2.635
			l-1.703-3.861l-1.684-4.099l-1.211-2.897l-2.183-4.821l-1.664-4.356l-2.175-3.827l-1.454-4.104l-2.643-5.058l-2.658-3.857
			l-2.653-5.55l-2.163-4.109l-2.415-5.048l-2.151-3.629l-2.171-1.901l-3.11-1.451l-2.912-2.153l-4.109-5.327l-2.41-5.812
			l-1.468-6.522l-2.163-7.231l-2.413-8.428l-1.226-4.124l1.231-2.442l1.688-3.12l-0.499-2.623l-0.46-1.201l-0.502-2.173
			l-5.523-17.584l0.141-0.079l3.13,3.595l1.923,3.177l1.696,2.878l1.679,2.643l2.643,3.609l2.171,4.119l1.221,1.434l1.693,3.399
			l1.926,2.648l1.686,2.87l1.926,2.91l0.717,1.184l2.408,2.902l2.9,4.119l1.454,2.658l1.928,3.37l1.431,2.873l1.211,1.921
			l1.451,2.665l0.949,1.681l1.004,2.44l0.947,1.923l1.444,2.156l0.969,2.178l0.957,2.952v1.936l-0.017,0.025l-0.949,1.214
			l-1.194,1.409l0.245,1.879l0.727,1.412l1.414,3.137l1.468,4.388l1.429,4.324l0.999,1.926l1.426,2.638l1.206,3.374l1.674,3.397
			l1.691,2.141l1.926,2.161l1.226,2.2l0.954,2.62l0.722,2.225v1.997l-0.04,0.02l-1.167,0.682l-0.227,1.651l-0.227,1.192l0.712,1.177
			v1.973l0.485,2.378l0.939,2.418l0.981,1.918l0.719,1.938l0.727,1.201l0.724,0.939l0.002,0.025l0.247,1.918l-0.247,1.73
			l0.247,1.681l-0.255,1.943L322.133,412.704z M266.984,302.856l1.206,4.064l2.413,8.425l2.166,7.236l1.466,6.514l2.393,5.78
			l4.082,5.293l2.883,2.129l3.115,1.456l2.218,1.941l2.161,3.649l2.415,5.051l2.163,4.109l2.648,5.543l2.658,3.854l2.653,5.073
			l1.451,4.104l2.176,3.827l1.666,4.361l2.183,4.821l1.214,2.902l1.681,4.094l1.698,3.852l1.446,2.645l0.719,2.161l0.962,1.696
			l1.194,1.933l0.959,1.192l1.142,1.81l0.648-1.32l0.245-1.884l-0.247-1.681l0.247-1.73l-0.245-1.874l-0.702-0.915l-0.739-1.221
			l-0.722-1.943l-0.981-1.918l-0.947-2.442l-0.489-2.408v-1.938l-0.722-1.197l0.005-0.03l0.232-1.216l0.237-1.726l0.035-0.02
			l1.162-0.682v-1.884l-0.714-2.185l-0.947-2.606l-1.211-2.176l-1.918-2.151l-1.703-2.161l-1.686-3.417l-1.204-3.372l-1.424-2.628
			l-1.006-1.941l-1.434-4.334l-1.464-4.378l-1.409-3.127l-0.739-1.449l-0.257-1.963l0.025-0.03l1.216-1.434l0.93-1.189v-1.869
			l-0.947-2.905l-0.959-2.156l-1.444-2.153l-0.954-1.938l-1.001-2.438l-0.944-1.674l-1.449-2.66l-1.214-1.923l-1.434-2.875
			l-1.926-3.367l-1.449-2.653l-2.892-4.106l-2.41-2.907l-0.722-1.192l-1.928-2.91l-1.684-2.865l-1.928-2.653l-1.688-3.394
			l-1.219-1.431l-2.175-4.124l-2.64-3.604l-1.684-2.65l-1.698-2.88l-1.913-3.164l-2.863-3.285l5.407,17.216l0.499,2.166l0.462,1.206
			l0.514,2.692l-1.716,3.172L266.984,302.856z"/>
	</g>
	<g>
		<polygon points="297.273,297.668 299.453,300.17 302.098,302.85 304.496,305.727 307.388,308.644 310.79,312.007 314.4,315.596 
			317.544,319.462 319.942,321.895 323.087,325.751 324.036,327.67 325.504,328.629 325.984,330.577 326.216,334.177 
			327.185,336.837 328.847,338.537 331.279,341.178 335.606,345.272 342.127,351.304 348.154,356.614 350.068,359.007 
			351.051,361.172 352.016,363.348 353.929,365.761 355.625,367.946 357.538,371.308 358.987,374.205 360.456,376.846 
			362.868,379.724 363.818,382.858 365.281,384.806 366.71,387.466 367.679,389.147 368.876,391.58 370.577,394.438 
			372.525,397.839 374.651,401.933 370.804,397.335 367.679,393.014 361.4,385.538 357.074,380.94 353.929,378.062 350.799,374.205 
			345.024,367.946 342.359,366.245 339.947,365.761 338.018,365.266 336.57,363.605 335.141,361.172 333.692,359.511 
			331.042,356.376 328.382,353.459 325.717,351.304 324.036,349.385 322.587,346.706 321.138,343.343 319.457,340.446 
			317.544,336.333 315.363,332.495 312.234,326.236 309.821,321.895 307.388,317.059 305.712,313.687 302.35,306.944 
			300.902,304.55 299.952,303.819 299.453,302.365 298.489,301.168 		"/>
	</g>
	<g>
		<path d="M374.587,401.989l-3.847-4.598l-3.127-4.326l-6.277-7.471l-4.321-4.598l-3.142-2.873l-3.137-3.862l-5.77-6.259
			l-2.638-1.681l-2.398-0.48l-1.955-0.502l-1.466-1.681l-1.439-2.445l-1.439-1.649l-2.65-3.135l-2.66-2.917l-2.655-2.146
			l-1.691-1.928l-1.459-2.695l-1.454-3.37l-1.676-2.887l-1.916-4.121l-2.178-3.832l-3.132-6.262l-2.41-4.339l-2.435-4.838
			l-5.038-10.116l-1.436-2.373l-0.967-0.761l-0.494-1.441l-0.967-1.209l-1.216-3.501l0.138-0.082l2.18,2.502l2.643,2.677
			l2.403,2.883l2.887,2.912l3.399,3.36l3.612,3.59l3.15,3.874l2.393,2.428l3.15,3.862l0.949,1.913l1.476,0.964l0.007,0.032
			l0.48,1.948l0.235,3.614l0.959,2.62l1.649,1.688l2.435,2.64l4.321,4.091l6.522,6.032l6.025,5.308l1.923,2.403l0.994,2.183
			l0.964,2.176l1.904,2.396l1.696,2.188l1.921,3.372l1.451,2.905l1.466,2.635l2.42,2.892l0.944,3.12l1.456,1.938l1.434,2.67
			l0.969,1.681l1.199,2.438l1.698,2.848l1.948,3.407l2.129,4.094L374.587,401.989z M338.064,365.191l1.904,0.49l2.438,0.494
			l2.665,1.701l5.792,6.277l3.132,3.861l3.137,2.868l4.329,4.603l6.284,7.476l3.127,4.326l3.36,4.015l-1.78-3.421l-1.946-3.402
			l-1.701-2.853l-1.199-2.442l-0.967-1.676l-1.429-2.66l-1.471-1.963l-0.944-3.12l-2.403-2.863l-1.476-2.655l-1.451-2.902
			l-1.911-3.36l-1.688-2.176l-1.913-2.41l-0.974-2.193l-0.984-2.166l-1.904-2.376l-6.017-5.3l-6.524-6.035l-4.326-4.094
			l-2.438-2.643l-1.676-1.73l-0.969-2.66l-0.237-3.622l-0.47-1.901l-1.471-0.974l-0.949-1.918l-3.135-3.842l-2.393-2.428
			l-3.15-3.871l-3.602-3.582l-3.402-3.362l-2.895-2.92l-2.403-2.883l-2.64-2.675l-1.904-2.183l1.073,3.085l0.969,1.209l0.489,1.431
			l0.952,0.739l1.449,2.393l5.041,10.121l2.433,4.836l2.41,4.339l3.132,6.262l2.178,3.834l1.916,4.119l1.679,2.89l1.454,3.372
			l1.444,2.672l1.671,1.904l2.655,2.146l2.67,2.927l2.65,3.135l1.449,1.661l1.439,2.445L338.064,365.191z"/>
	</g>
	<g>
		<polygon points="346.938,330.063 348.619,332.743 350.799,335.403 352.98,338.765 354.428,340.663 354.913,342.849 
			354.913,346.221 355.862,347.675 357.538,349.603 359.239,352.035 361.904,354.666 364.297,357.563 366.71,359.739 
			368.411,361.904 373.469,367.215 375.649,369.855 377.563,372.04 379.264,373.969 381.909,376.154 378.047,370.844 
			374.206,365.513 372.005,361.904 370.804,359.976 370.112,358.542 370.112,354.181 369.128,352.52 368.411,351.046 
			364.782,346.953 361.4,343.096 358.275,339.962 352.248,334.404 349.85,331.764 		"/>
	</g>
	<g>
		<path d="M381.858,376.22l-2.645-2.185l-1.711-1.938l-1.913-2.188l-2.183-2.643l-5.053-5.305l-1.706-2.171l-2.403-2.166
			l-2.403-2.907l-2.658-2.623l-1.711-2.445l-1.671-1.921l-0.969-1.483v-3.397l-0.48-2.151l-1.436-1.884l-2.185-3.367l-2.175-2.653
			l-1.686-2.687l0.111-0.116l2.912,1.701l2.418,2.658l6.022,5.552l3.127,3.135l3.384,3.861l3.629,4.094l0.729,1.491l0.991,1.698
			v4.341l0.685,1.419l1.197,1.918l2.2,3.612l3.839,5.325l3.861,5.31L381.858,376.22z M354.995,346.195l0.937,1.434l1.669,1.918
			l1.706,2.44l2.655,2.618l2.4,2.905l2.403,2.166l1.711,2.175l5.053,5.305l2.185,2.645l3.612,4.114l2.133,1.76l-3.478-4.784
			l-3.842-5.332l-2.203-3.614l-1.201-1.926l-0.705-1.478v-4.339l-0.974-1.642l-0.719-1.478l-3.617-4.077l-3.382-3.857l-3.122-3.13
			l-6.025-5.555l-2.403-2.648l-2.603-1.515l1.503,2.396l2.175,2.653l2.185,3.37l1.461,1.926l0.485,2.185V346.195z"/>
	</g>
	<g>
		<polyline points="119.021,141.067 128.39,133.073 128.464,133.132 125.676,145.161 136.222,151.584 136.207,151.688 
			124.044,152.563 121.33,164.434 121.206,164.4 116.539,152.993 104.168,153.888 104.094,153.834 113.424,145.839 108.742,134.704 
			108.816,134.65 119.021,141.067 		"/>
	</g>
	<g>
		<polyline points="273.817,97.286 286.064,98.502 286.064,98.571 275.458,104.935 278.158,117.003 278.069,117.053 269.026,108.85 
			258.564,115.105 258.475,115.036 263.518,103.773 254.277,95.442 254.277,95.387 266.504,96.554 271.275,85.484 271.364,85.484 
			273.817,97.286 		"/>
	</g>
	<g>
		<polyline points="192.093,104.129 203.875,100.5 203.894,100.589 196.577,110.546 203.717,120.632 203.657,120.721 
			192.167,116.667 184.958,126.517 184.849,126.442 185.087,114.126 173.359,110.066 173.339,109.973 185.067,106.328 
			185.176,94.24 185.245,94.21 192.093,104.129 		"/>
	</g>
	<g>
		<polyline points="231.692,96.356 243.943,95.12 243.943,95.209 234.806,103.486 239.83,114.768 239.741,114.877 229.279,108.618 
			220.25,116.826 220.161,116.771 222.861,104.702 212.171,98.413 212.171,98.304 224.364,97.088 226.885,85.271 226.974,85.251 
			231.692,96.356 		"/>
	</g>
	<g>
		<polyline points="153.26,119.416 164.113,113.552 164.147,113.641 158.946,124.835 167.87,133.309 167.87,133.418 
			155.782,131.698 150.635,142.763 150.526,142.748 148.36,130.556 136.044,128.84 136.009,128.771 146.823,122.937 
			144.553,111.051 144.622,111.011 153.26,119.416 		"/>
	</g>
	<g>
		<polyline points="49.603,237.466 53.697,225.847 53.786,225.887 57.435,237.704 69.766,237.931 69.82,238.06 59.699,244.887 
			63.299,256.541 63.204,256.601 53.43,249.036 43.185,256.047 43.091,256.007 47.17,244.438 37.534,237.15 37.534,237.061 
			49.603,237.466 		"/>
	</g>
	<g>
		<polyline points="66.443,200.73 72.45,189.981 72.52,190.021 74.097,202.283 86.23,204.587 86.27,204.696 75.15,209.759 
			76.737,221.823 76.614,221.862 68.263,212.745 56.965,217.906 56.896,217.877 62.863,207.128 54.607,198.347 54.661,198.258 
			66.443,200.73 		"/>
	</g>
	<g>
		<polyline points="90.042,167.613 97.978,158.194 98.032,158.268 97.3,170.585 108.762,175.143 108.776,175.287 96.91,178.115 
			96.173,190.288 96.049,190.322 89.592,179.811 77.508,182.743 77.44,182.689 85.321,173.285 78.868,163.054 78.942,163.005 
			90.042,167.613 		"/>
	</g>
	<g>
		<polyline points="39.497,275.3 41.356,263.127 41.43,263.157 47.22,274.083 59.398,272.027 59.452,272.116 50.799,280.699 
			56.52,291.517 56.411,291.567 45.435,285.955 36.639,294.751 36.55,294.731 38.409,282.598 27.556,277.248 27.571,277.159 
			39.497,275.3 		"/>
	</g>
	<g>
		<polyline points="54.374,396.603 49.173,385.449 49.242,385.4 60.115,391.313 69.123,382.858 69.232,382.947 66.745,394.873 
			77.474,400.717 77.44,400.825 65.172,402.2 62.705,414.393 62.616,414.452 57.464,403.278 45.45,404.771 45.435,404.722 
			54.374,396.603 		"/>
	</g>
	<g>
		<polyline points="41.731,357.395 39.373,345.291 39.447,345.272 48.584,353.628 59.343,347.585 59.452,347.635 54.196,358.671 
			63.204,366.868 63.15,366.977 50.908,365.425 45.598,376.638 45.509,376.648 43.165,364.584 31.151,363.229 31.131,363.14 
			41.731,357.395 		"/>
	</g>
	<g>
		<polyline points="36.461,315.992 36.298,303.67 36.372,303.67 43.862,313.45 55.536,309.445 55.606,309.534 48.496,319.443 
			55.912,329.133 55.842,329.223 44.055,325.504 36.852,335.64 36.728,335.64 36.57,323.319 25,319.848 25,319.749 36.461,315.992 
					"/>
	</g>
	<g>
		<polyline points="450.956,239.365 463.292,239.365 463.292,239.454 453.369,246.841 457.215,258.549 457.141,258.658 
			447.327,251.38 437.527,258.658 437.458,258.549 441.339,246.821 431.342,239.454 431.342,239.365 443.623,239.365 
			447.292,227.864 447.381,227.864 450.956,239.365 		"/>
	</g>
	<g>
		<polyline points="437.171,207.81 443.07,218.609 443.001,218.643 431.772,213.476 423.332,222.465 423.208,222.45 
			424.889,210.347 413.839,205.234 413.839,205.126 426.017,202.925 427.678,190.609 427.747,190.575 433.631,201.333 
			445.502,199.049 445.537,199.158 437.171,207.81 		"/>
	</g>
	<g>
		<polyline points="415.52,174.644 423.352,184.157 423.278,184.206 411.302,181.22 404.702,191.642 404.598,191.642 
			403.97,179.469 392.119,176.538 392.119,176.414 403.649,171.944 402.971,159.554 403.041,159.5 410.838,168.978 422.066,164.468 
			422.116,164.543 415.52,174.644 		"/>
	</g>
	<g>
		<polyline points="387.807,146.63 397.123,154.669 397.068,154.748 384.732,153.834 379.98,165.22 379.852,165.22 377.227,153.314 
			365.049,152.404 365.049,152.276 375.669,145.967 372.881,133.863 372.95,133.774 382.23,141.804 392.549,135.505 
			392.598,135.565 387.807,146.63 		"/>
	</g>
	<g>
		<polyline points="354.092,123.372 364.747,129.572 364.708,129.661 352.411,131.021 349.85,143.09 349.746,143.109 
			344.935,131.896 332.812,133.27 332.778,133.162 342.023,124.974 337.069,113.552 337.124,113.498 347.724,119.683 
			356.703,111.584 356.792,111.639 354.092,123.372 		"/>
	</g>
	<g>
		<polyline points="315.507,106.689 327.309,110.23 327.289,110.319 315.67,114.521 316.011,126.872 315.883,126.922 
			308.59,117.147 297.129,121.315 297.075,121.206 304.135,111.085 296.645,101.142 296.664,101.093 308.446,104.613 315.26,94.636 
			315.349,94.655 315.507,106.689 		"/>
	</g>
	<g>
		<polyline points="457.823,358.414 468.296,364.94 468.261,365.009 455.945,366.037 452.993,378.013 452.889,378.042 
			448.419,366.68 436.261,367.679 436.222,367.551 445.735,359.649 441.141,348.12 441.176,348.06 451.584,354.557 460.805,346.706 
			460.899,346.755 457.823,358.414 		"/>
	</g>
	<g>
		<polyline points="445.789,396.484 454.783,404.919 454.729,404.969 442.447,403.575 437.26,414.749 437.102,414.749 
			434.936,402.774 422.833,401.36 422.833,401.231 433.666,395.357 431.396,383.145 431.47,383.085 440.425,391.451 
			450.956,385.577 451.045,385.627 445.789,396.484 		"/>
	</g>
	<g>
		<polyline points="463.648,319.106 475,323.843 474.985,323.912 462.97,326.879 461.987,339.18 461.878,339.2 455.658,328.718 
			443.807,331.655 443.767,331.526 451.886,322.231 445.502,311.556 445.522,311.483 456.854,316.219 464.686,307.052 
			464.795,307.087 463.648,319.106 		"/>
	</g>
	<g>
		<polyline points="461.2,279.641 473.23,282.38 473.195,282.43 461.898,287.423 463.06,299.725 462.97,299.794 455.015,290.528 
			443.841,295.483 443.767,295.374 450.17,284.793 442.016,275.409 442.036,275.3 453.997,278.034 460.147,267.597 460.236,267.626 
			461.2,279.641 		"/>
	</g>
</g>
</svg>
